<?xml version="1.0" encoding="UTF-8"?>
<svg width="500px" height="342px" viewBox="0 0 500 342" version="1.1" xmlns="http://www.w3.org/2000/svg" xmlns:xlink="http://www.w3.org/1999/xlink">
    <title>logo</title>
    <defs>
        <path d="M458.417753,28.9118932 L411.431439,253.632115 C409.106128,264.75332 399.301157,272.720222 387.939455,272.720222 L335.465923,272.720222 L335.465923,272.720222 L307.174386,272.720222 C298.33783,272.720222 291.174386,265.556778 291.174386,256.720222 C291.174386,255.619948 291.287879,254.52261 291.513063,253.445626 L297.416228,225.212712 C298.966414,217.798678 305.502909,212.48744 313.077272,212.487308 L335.058756,212.486925 C342.633082,212.486793 349.169554,207.175606 350.719779,199.761619 L375.864293,79.507381 C377.672857,70.8578827 372.127184,62.3799486 363.477686,60.571385 C362.400671,60.346187 361.303298,60.232687 360.202992,60.232687 L297.928871,60.232687 C290.354403,60.232687 283.817756,65.5439549 282.267548,72.9580915 L238.368716,282.911893 C236.043405,294.033098 226.238434,302 214.876732,302 L24,302 C10.745166,302 4.4408921e-14,291.254834 4.26325641e-14,278 C4.26325641e-14,276.34959 0.170239604,274.703582 0.508016153,273.088107 L53.6163821,19.0881068 C55.9416932,7.96690192 65.7466641,5.63982445e-15 77.108366,0 L434.925769,0 C448.180603,-2.7094705e-14 458.925769,10.745166 458.925769,24 C458.925769,25.6504099 458.75553,27.2964181 458.417753,28.9118932 Z M192.334543,60.1711748 L131.028434,60.1711748 C123.455624,60.1711748 116.91993,65.4801705 115.368016,72.8922562 L83.9228643,223.077202 C82.1119676,231.726212 87.6553537,240.205642 96.3043637,242.016539 C97.3827298,242.242323 98.4815329,242.356121 99.5832823,242.356121 L160.889391,242.356121 C168.462201,242.356121 174.997895,237.047125 176.549809,229.635039 L207.994961,79.4500934 C209.805857,70.8010834 204.262471,62.3216535 195.613461,60.5107568 C194.535095,60.2849726 193.436292,60.1711748 192.334543,60.1711748 Z" id="path-1"></path>
    </defs>
    <g id="Page-1" stroke="none" stroke-width="1" fill="none" fill-rule="evenodd">
        <g id="Artboard" transform="translate(-148.000000, -180.000000)">
            <g id="logo" transform="translate(168.537115, 200.000000)">
                <mask id="mask-2" fill="white">
                    <use xlink:href="#path-1"></use>
                </mask>
                <use id="Combined-Shape" fill="#FF4296" xlink:href="#path-1"></use>
                <rect id="Rectangle" fill="#FF4296" mask="url(#mask-2)" x="-20.5371154" y="-20" width="502" height="342"></rect>
                <path d="M78.4628846,168.678517 C200.039012,130.57298 300.531192,114.38887 379.939426,120.126186 C497.861483,120.126186 548.399494,190.178517 652.250154,190.178517 C706.575322,190.178517 779.979566,183.01185 872.462885,168.678517 L872.462885,329.678517 L78.4628846,329.678517 L78.4628846,168.678517 Z" id="Rectangle" fill="#FFD238" mask="url(#mask-2)"></path>
                <path d="M-133.537115,199.678517 C-35.2350075,161.57298 46.0193752,145.38887 110.226033,151.126186 C205.57359,151.126186 246.436818,221.178517 330.406747,221.178517 C374.332135,221.178517 433.684181,214.01185 508.462885,199.678517 L508.462885,360.678517 L-133.537115,360.678517 L-133.537115,199.678517 Z" id="Rectangle" fill="#AE70FA" mask="url(#mask-2)"></path>
                <path d="M434.925769,-10 C444.31461,-10 452.81461,-6.19442037 458.9674,-0.0416305603 C465.12019,6.11115925 468.925769,14.6111593 468.925769,24 C468.925769,26.0782939 468.735213,28.1516609 468.35679,30.1941009 L468.20608,30.9585154 L421.219766,255.678737 C419.57267,263.556257 415.276529,270.316628 409.380193,275.107619 C403.617865,279.789724 396.327252,282.590949 388.487307,282.715859 L387.939455,282.720222 L307.174386,282.720222 C299.994684,282.720222 293.494684,279.810072 288.78961,275.104998 C284.084535,270.399923 281.174386,263.899923 281.174386,256.720222 C281.174386,255.155771 281.315587,253.59497 281.596028,252.056786 L281.724737,251.399004 L287.627902,223.16609 C288.887428,217.142188 292.172642,211.972546 296.681517,208.308853 C301.061567,204.749836 306.596353,202.611944 312.550649,202.492586 L313.077098,202.487308 L335.058582,202.486925 C336.478768,202.4869 337.801655,201.988964 338.842163,201.143503 C339.813303,200.354407 340.53846,199.262578 340.867154,197.990286 L340.931466,197.714935 L366.07598,77.4606972 C366.415085,75.8389163 366.064731,74.2332195 365.224156,72.9481915 C364.38358,71.6631636 363.052783,70.6988044 361.431002,70.3596987 C361.128091,70.2963618 360.820887,70.2565862 360.512144,70.2406569 L360.202992,70.232687 L297.928871,70.232687 C296.508658,70.232687 295.185741,70.7306184 294.145211,71.5760874 C293.17405,72.3651918 292.44888,73.4570401 292.120186,74.7293567 L292.055875,75.0047137 L248.157043,284.958515 C246.509948,292.836035 242.213806,299.596407 236.31747,304.387398 C230.555142,309.069503 223.264529,311.870728 215.424584,311.995638 L214.876732,312 L24,312 C14.6111593,312 6.11115925,308.19442 -0.0416305603,302.041631 C-6.19442037,295.888841 -10,287.388841 -10,278 C-10,275.921706 -9.80944374,273.848339 -9.43102027,271.805899 L-9.28031045,271.041485 L43.8280555,17.0414846 C45.4751509,9.1639645 49.7712924,2.40359335 55.6676282,-2.38739778 C61.4299563,-7.06950274 68.720569,-9.87072771 76.5605141,-9.99563767 L77.108366,-10 L434.925769,-10 Z M192.334543,70.1711748 L131.028434,70.1711748 L130.745804,70.1777665 C129.43343,70.2390814 128.216497,70.7252371 127.245417,71.514053 C126.204974,72.3592129 125.446761,73.5518143 125.155777,74.9415803 L125.155777,74.9415803 L93.7106256,225.126526 L93.6578227,225.41248 C93.4139462,226.936023 93.7704285,228.42961 94.5612323,229.639262 C95.4014613,230.924516 96.7319985,231.889234 98.3536879,232.228778 C98.7580751,232.313447 99.1701263,232.356121 99.5832823,232.356121 L99.5832823,232.356121 L160.889391,232.356121 L161.17202,232.349529 C162.484395,232.288214 163.701328,231.802058 164.672408,231.013243 C165.712851,230.168083 166.471064,228.975481 166.762048,227.585715 L166.762048,227.585715 L198.207199,77.4007693 L198.260002,77.1148159 C198.503879,75.5912724 198.147396,74.0976855 197.356593,72.888034 C196.516364,71.6027793 195.185826,70.6380612 193.564137,70.2985181 C193.15975,70.213849 192.747699,70.1711748 192.334543,70.1711748 L192.334543,70.1711748 Z" id="Combined-Shape" stroke="#710277" stroke-width="20"></path>
            </g>
        </g>
    </g>
</svg>