<svg clip-rule="evenodd" fill-rule="evenodd" stroke-linejoin="round" stroke-miterlimit="2" viewBox="0 0 260 269" xmlns="http://www.w3.org/2000/svg"><g transform="translate(-436.996 -94.165)"><path d="m567.986 325.423 41.711-23.986c2.777-1.596 6.969-1.765 9.368-.371l41.922 24.301c1.164.672 1.695 1.595 1.607 2.546l-.003.012c-.093.996-.867 2.035-2.283 2.848l-41.711 23.986c-2.777 1.596-6.974 1.757-9.368.371l-37.696-21.848-4.226-2.453c-1.033-.604-1.568-1.392-1.616-2.224-.069-1.096.71-2.271 2.295-3.182z" fill="#fff" fill-rule="nonzero"/><path d="m567.986 325.423.187.325 41.71-23.986c1.442-.83 3.322-1.267 5.096-1.266 1.481-.001 2.887.305 3.897.894l41.923 24.301c1.005.587 1.427 1.303 1.429 2.02l-.007.168.373.034-.364-.091-.003.012-.009.056c-.071.821-.744 1.782-2.097 2.558l-41.711 23.985c-1.44.83-3.319 1.265-5.092 1.264-1.484.001-2.891-.305-3.901-.892l-37.696-21.847-4.226-2.453c-.961-.566-1.39-1.244-1.43-1.921v-.002l-.004-.11c-.006-.863.655-1.887 2.111-2.724l-.186-.325-.187-.326c-1.586.912-2.481 2.122-2.488 3.375l.005.157v-.002c.056.987.698 1.885 1.802 2.526l4.226 2.453 37.697 21.848c1.171.676 2.692.991 4.277.993 1.894-.002 3.881-.454 5.466-1.363l41.711-23.986c1.479-.851 2.355-1.968 2.469-3.139l-.373-.034.364.091.003-.012.01-.058.01-.235c.002-1.041-.645-2.006-1.804-2.669l-41.921-24.3c-1.172-.679-2.692-.995-4.274-.996-1.895.001-3.883.456-5.469 1.366l-41.711 23.986z" fill="#231f20" fill-rule="nonzero"/><path d="m614.701 308.456 33.464 19.398-34.576 19.882-33.463-19.397z" fill="#fff" fill-rule="nonzero"/><path d="m614.701 308.456-.188.324 32.902 19.073-33.825 19.45-32.714-18.963 34.012-19.559-.187-.325-.188.324.188-.324-.186-.325-34.576 19.883c-.116.066-.188.19-.188.324s.071.258.187.325l33.463 19.398c.116.067.259.067.375 0l34.576-19.882c.116-.066.188-.19.188-.324.001-.134-.071-.258-.187-.325l-33.463-19.399c-.116-.067-.259-.067-.375 0z" fill="#231f20" fill-rule="nonzero"/><path d="m580.131 325.164 5.494 3.184-5.505 3.165-5.494-3.184z" fill="#ff4295" fill-rule="nonzero"/><path d="m580.131 325.164-.188.324 4.932 2.859-4.754 2.733-4.745-2.75 4.942-2.841-.187-.325-.188.324.188-.324-.187-.325-5.505 3.165c-.116.067-.188.19-.188.324s.071.258.187.325l5.494 3.185c.116.067.259.067.375.001l5.505-3.166c.116-.066.188-.19.188-.324s-.071-.258-.187-.325l-5.494-3.185c-.116-.067-.259-.067-.375 0z" fill="#231f20" fill-rule="nonzero"/><path d="m614.707 305.281 5.494 3.185-5.504 3.166-5.495-3.185z" fill="#ff4295" fill-rule="nonzero"/><path d="m614.707 305.281-.188.324 4.932 2.859-4.754 2.735-4.745-2.751 4.942-2.842-.187-.325-.188.324.188-.324-.187-.325-5.505 3.166c-.116.067-.187.19-.188.324 0 .134.071.258.187.325l5.494 3.185c.116.067.259.067.376.001l5.504-3.166c.117-.067.188-.191.188-.325.001-.134-.071-.258-.186-.325l-5.495-3.184c-.116-.068-.259-.068-.375-.001z" fill="#231f20" fill-rule="nonzero"/><path d="m613.594 344.561 5.494 3.185-5.505 3.166-5.494-3.185z" fill="#ff4295" fill-rule="nonzero"/><path d="m613.594 344.561-.188.325 4.932 2.859-4.754 2.734-4.745-2.75 4.942-2.843-.187-.325-.188.325.188-.325-.187-.325-5.505 3.166c-.116.067-.188.191-.188.325s.071.258.187.325l5.494 3.184c.116.068.259.068.375.001l5.505-3.166c.116-.067.188-.191.188-.325s-.071-.257-.187-.325l-5.494-3.184c-.116-.067-.259-.068-.375-.001z" fill="#231f20" fill-rule="nonzero"/><path d="m648.17 324.679 5.494 3.185-5.505 3.165-5.494-3.185z" fill="#ff4295" fill-rule="nonzero"/><path d="m648.17 324.679-.188.325 4.932 2.859-4.754 2.733-4.745-2.75 4.942-2.841-.187-.326-.188.325.188-.325-.187-.325-5.505 3.165c-.116.067-.187.191-.188.325 0 .134.071.258.187.325l5.494 3.184c.116.068.259.068.375.001l5.505-3.165c.116-.067.188-.19.188-.324.001-.134-.071-.258-.187-.325l-5.494-3.185c-.116-.067-.259-.067-.375-.001z" fill="#231f20" fill-rule="nonzero"/><path d="m565.691 328.605c.048.832.583 1.62 1.616 2.224l4.226 2.453 37.696 21.848c2.394 1.386 6.591 1.225 9.368-.371l41.711-23.986c1.416-.813 2.19-1.852 2.283-2.848l-.022 5.585.002.572c-.131.966-.9 1.961-2.277 2.753l-41.704 23.98c-2.777 1.597-6.969 1.766-9.376.376l-41.922-24.301c-1.065-.626-1.598-1.445-1.613-2.307l-.001-.091z" fill="#2b2829" fill-rule="nonzero"/><path d="m565.691 328.605-.375.022c.056.987.698 1.885 1.802 2.526l4.226 2.453 37.697 21.848c1.171.676 2.693.991 4.277.993 1.894-.002 3.881-.454 5.466-1.363l41.711-23.986c1.479-.851 2.355-1.968 2.469-3.139l-.373-.034-.375-.002-.022 5.585v.003l.002.572.375-.001-.372-.051c-.104.801-.775 1.723-2.092 2.479l-41.704 23.98c-1.443.831-3.324 1.269-5.101 1.267-1.481.002-2.887-.303-3.9-.891l-41.922-24.3.002.001c-.992-.589-1.414-1.289-1.428-1.991v.003l-.001-.088.013-5.885-.375-.001-.375.022.375-.022-.375-.001-.013 5.887v.005l.001.091v.002c.016 1.023.66 1.962 1.798 2.625l.002.001 41.922 24.301c1.175.676 2.694.99 4.276.991 1.897-.001 3.888-.456 5.475-1.367l41.704-23.98c1.438-.828 2.303-1.897 2.461-3.028l.004-.051-.002-.573v.003l.022-5.585c.001-.2-.157-.366-.357-.376s-.373.14-.391.34c-.071.821-.744 1.782-2.097 2.558l-41.711 23.985c-1.44.83-3.319 1.265-5.092 1.264-1.484.001-2.891-.305-3.901-.892l-37.696-21.847-4.226-2.453c-.961-.566-1.39-1.244-1.43-1.921-.012-.203-.182-.359-.385-.354-.202.006-.364.172-.364.374z" fill="#231f20" fill-rule="nonzero"/><path d="m614.491 315.91-.691 24.373" fill="none"/><path d="m614.116 315.899-.691 24.373c-.006.207.157.38.364.386s.38-.157.386-.364l.69-24.373c.006-.207-.157-.38-.364-.386s-.379.157-.385.364z" fill="#231f20" fill-rule="nonzero"/><path d="m635.255 327.946-42.219.301" fill="none"/><g fill-rule="nonzero"><path d="m635.253 327.571-42.219.301c-.207.001-.374.17-.373.377.002.208.171.374.378.373l42.219-.301c.207-.001.374-.171.372-.378-.001-.207-.17-.373-.377-.372z" fill="#231f20"/><path d="m682.045 192.269-117.226-67.683-.354 125.729c0 2.785 1.96 6.204 4.391 7.605l80.578 46.521 32.361 18.671c2.416 1.4 4.406.28 4.406-2.519l.176-59.417.178-61.376.015-4.922z" fill="#fff"/><path d="m682.045 192.269.188-.324-117.227-67.684c-.116-.067-.258-.067-.374 0-.116.066-.188.19-.188.324l-.354 125.729v.001c.002 1.481.514 3.083 1.334 4.509.822 1.424 1.954 2.674 3.245 3.42l80.577 46.522 32.362 18.671c.749.434 1.479.653 2.156.653.818.004 1.555-.337 2.05-.958.498-.619.761-1.487.761-2.539l.177-59.416.178-61.376.015-4.922c0-.134-.072-.259-.188-.326l-4.525-2.609-.374.65 4.336 2.5-.014 4.704-.178 61.376-.176 59.417c0 .931-.235 1.624-.596 2.071-.363.445-.845.674-1.466.678-.512 0-1.119-.169-1.781-.552l-32.362-18.672-80.578-46.522c-1.14-.654-2.204-1.814-2.969-3.145-.768-1.329-1.236-2.829-1.234-4.134v.001l.352-125.082 116.666 67.36z" fill="#231f20"/><path d="m686.628 173.422-.014 3.433-.03 13.307-.014 4.716-4.525-2.609-117.226-67.683.073-21.442c0-1.488.559-2.505 1.444-2.917l.044-.015c.133-.059.28-.103.428-.133.162-.044.339-.058.516-.058.604 0 1.267.191 1.974.604l112.939 65.192c2.431 1.401 4.391 4.805 4.391 7.605z" fill="#2b2829"/><path d="m686.628 173.422-.375-.002-.014 3.434-.03 13.307-.012 4.069-3.965-2.286-117.038-67.574.073-21.224v-.002c0-.697.132-1.265.349-1.692.219-.428.517-.716.879-.885l-.159-.34.119.356.044-.015.034-.013c.101-.046.224-.083.349-.108l.024-.006c.116-.031.261-.046.418-.045.524 0 1.122.166 1.785.552l.002.001 112.938 65.193c1.141.655 2.205 1.811 2.97 3.14.768 1.328 1.236 2.827 1.234 4.14v-.002l.375.002h.375c-.001-1.488-.514-3.091-1.334-4.515-.822-1.423-1.954-2.669-3.245-3.415l-112.938-65.192.001.001c-.751-.438-1.479-.655-2.163-.655-.198 0-.406.015-.614.071l.098.362-.074-.367c-.17.034-.342.085-.506.157l.152.343-.118-.356-.044.015-.04.016c-.523.243-.948.669-1.23 1.225-.283.557-.431 1.242-.431 2.032v-.001l-.073 21.441c-.001.134.071.259.187.326l117.227 67.684 4.524 2.609c.116.066.259.067.375 0s.187-.19.188-.324l.014-4.716.03-13.307v.001l.014-3.434v-.001z" fill="#231f20"/><path d="m696.006 189.387-.191 66.299-.162 59.431c-.015 1.386-.501 2.358-1.297 2.815l-9.304 5.402c.147-.104.279-.222.398-.355l.162-.206c.073-.102.132-.206.191-.324.089-.147.148-.31.206-.472l.015-.073c.045-.147.089-.295.103-.472.03-.088.044-.206.044-.309.015-.162.03-.339.03-.53l.176-59.417.178-61.376.015-4.922 2.755-1.607z" fill="#fff"/><path d="m696.006 189.387-.375-.001-.191 66.299-.162 59.431v-.003c-.017 1.308-.464 2.125-1.109 2.494l-9.305 5.402.188.325.216.306c.17-.119.324-.257.462-.412l.014-.017.162-.206.011-.014c.087-.121.157-.245.222-.375l-.336-.167.321.194c.114-.19.179-.376.238-.538l.015-.054.014-.073-.367-.074.358.109c.045-.148.101-.328.119-.55l-.374-.031.356.118c.047-.146.062-.288.063-.427h-.375l.374.034c.014-.165.03-.354.03-.564l.177-59.416.178-61.376.014-4.707 2.569-1.499 6.682-3.883-.189-.325-.375-.001.375.001-.188-.324-6.682 3.884-2.755 1.607c-.115.067-.186.19-.186.323l-.015 4.921-.178 61.376-.176 59.417c0 .174-.014.338-.028.498l-.002.034-.025.192-.018.086c-.01.132-.043.247-.088.394l-.009.036-.015.073.368.073-.353-.127c-.058.162-.11.3-.174.405l-.015.027c-.053.106-.101.19-.161.273l.306.218-.295-.232-.162.206.295.232-.281-.249c-.099.111-.21.21-.333.297-.164.116-.208.341-.1.509.109.169.331.223.504.122l9.304-5.401c.946-.545 1.471-1.672 1.484-3.136v-.003l.162-59.431.191-66.298c0-.134-.071-.259-.187-.326s-.261-.067-.376 0z" fill="#231f20"/><path d="m696.065 167.946-.059 21.441-6.681 3.884-2.755 1.607.014-4.716.03-13.307.014-3.433c0-2.8-1.96-6.204-4.391-7.605l-112.939-65.192c-.707-.413-1.37-.604-1.974-.604-.177 0-.354.014-.516.058-.148.03-.295.074-.428.133l9.231-5.372c.796-.471 1.916-.397 3.138.295l112.924 65.208c2.432 1.399 4.392 4.803 4.392 7.603z" fill="#424242"/><path d="m696.065 167.946-.375-.001-.058 21.226-6.496 3.776-2.189 1.277.012-4.061.03-13.307v.001l.014-3.434v-.001c-.001-1.488-.514-3.091-1.334-4.515-.822-1.423-1.954-2.669-3.245-3.415l-112.938-65.192.001.001c-.751-.438-1.479-.655-2.163-.655-.198 0-.406.015-.614.071l.098.362-.074-.367c-.17.034-.342.085-.506.157l.152.343.189.324 9.23-5.372.003-.001c.272-.161.593-.247.968-.248.515 0 1.129.169 1.795.546l-.003-.001 112.924 65.207c1.141.655 2.205 1.811 2.97 3.14.768 1.327 1.235 2.826 1.234 4.139v-.001l.375.001h.375c-.002-1.487-.514-3.09-1.334-4.514-.823-1.423-1.955-2.67-3.246-3.414l-112.923-65.208-.003-.001c-.752-.426-1.486-.643-2.164-.644-.491 0-.954.117-1.35.352l.002-.001-9.23 5.372c-.173.1-.236.318-.146.495.091.177.305.253.487.172.101-.046.224-.083.349-.108l.024-.006c.116-.031.261-.046.418-.045.524 0 1.122.166 1.785.552l.002.001 112.938 65.193c1.141.655 2.205 1.811 2.97 3.14.768 1.328 1.236 2.827 1.234 4.14v-.002l-.014 3.434-.03 13.307-.014 4.716c-.001.133.071.259.187.326.116.066.261.066.376-.001l2.755-1.607 6.682-3.883c.114-.067.186-.191.186-.324l.059-21.441v-.001z" fill="#231f20"/><path d="m585.063 123.069c-.016 1.983-1.412 2.791-3.144 1.791-1.731-.999-3.129-3.42-3.123-5.409s1.412-2.791 3.144-1.791c1.731.999 3.119 3.414 3.123 5.409z" fill="#231f20"/><path d="m584.688 123.066c-.005.642-.169 1.111-.407 1.405-.241.292-.546.439-.959.443-.34.001-.754-.112-1.215-.379-.79-.453-1.536-1.261-2.073-2.19-.538-.928-.865-1.976-.863-2.882v-.004l-.222-.001.222.01v-.009l-.222-.001.222.01v-.016c.002-.643.165-1.111.402-1.405.24-.291.545-.438.96-.442.341-.001.757.113 1.219.38.791.454 1.537 1.262 2.072 2.193.538.93.864 1.981.864 2.891 0 .207.168.375.376.375.207-.001.374-.169.374-.376-.004-1.084-.374-2.238-.964-3.264-.592-1.025-1.406-1.924-2.347-2.469-.549-.317-1.089-.48-1.594-.48-.612-.004-1.173.255-1.544.722-.374.465-.565 1.108-.568 1.873l.375.001-.374-.017-.001.029c.002 1.081.373 2.233.964 3.258.593 1.023 1.408 1.92 2.347 2.464.548.316 1.085.479 1.59.479.612.004 1.172-.256 1.543-.723.373-.465.567-1.106.573-1.869.001-.208-.165-.377-.372-.378-.207-.002-.377.165-.378.372z" fill="#fff"/><path d="m595.736 130.049c-.015 1.984-1.412 2.791-3.144 1.791-1.73-.999-3.128-3.419-3.122-5.409.005-1.989 1.411-2.791 3.143-1.791 1.731.999 3.119 3.414 3.123 5.409z" fill="#231f20"/><path d="m595.361 130.046c-.005.643-.169 1.111-.407 1.405-.24.292-.545.439-.959.443-.34.001-.755-.112-1.215-.379-.789-.453-1.536-1.261-2.072-2.19-.538-.928-.865-1.975-.863-2.881v-.005l-.222-.001.222.01v-.009l-.222-.001.222.01v-.016c.001-.643.164-1.111.401-1.405.24-.291.545-.438.96-.442.341-.001.757.113 1.219.38.791.454 1.537 1.263 2.072 2.194.538.929.863 1.98.864 2.891 0 .207.168.374.375.374s.375-.169.375-.376c-.004-1.084-.374-2.238-.964-3.264-.592-1.025-1.406-1.924-2.347-2.469-.549-.317-1.089-.48-1.594-.48-.612-.004-1.173.255-1.544.722-.373.466-.565 1.108-.567 1.873l.375.001-.375-.016v.029c.001 1.081.373 2.233.964 3.257.593 1.023 1.407 1.92 2.346 2.464.548.316 1.085.479 1.59.479.612.004 1.172-.256 1.543-.722.373-.465.567-1.107.573-1.87.001-.207-.166-.376-.373-.378-.207-.001-.376.165-.377.372z" fill="#fff"/><path d="m607.271 136.442c-.016 1.985-1.412 2.791-3.144 1.791-1.731-.999-3.128-3.419-3.123-5.409.006-1.989 1.412-2.79 3.144-1.791 1.731 1 3.119 3.415 3.123 5.409z" fill="#231f20"/><path d="m606.896 136.439c-.005.643-.169 1.112-.407 1.405-.24.293-.545.44-.959.444-.339 0-.754-.113-1.215-.38-.79-.453-1.537-1.261-2.073-2.19-.538-.929-.865-1.977-.863-2.883v-.004l-.269-.001.269.014v-.013l-.269-.001.269.014v-.018c.002-.644.165-1.112.402-1.405.24-.292.545-.439.96-.443.341 0 .757.113 1.219.38.791.455 1.537 1.263 2.072 2.194.538.93.864 1.98.864 2.891 0 .207.168.375.376.374.207 0 .374-.168.374-.376-.004-1.083-.374-2.238-.964-3.264-.592-1.025-1.406-1.924-2.347-2.468-.549-.317-1.089-.48-1.594-.481-.612-.004-1.173.256-1.544.723-.374.465-.565 1.107-.568 1.872l.375.001-.374-.02-.001.031c.002 1.081.373 2.233.964 3.258.593 1.023 1.408 1.921 2.347 2.465.548.316 1.086.479 1.59.48.612.004 1.172-.257 1.543-.723.373-.465.567-1.107.573-1.87.001-.207-.165-.376-.372-.378-.207-.001-.377.165-.378.372z" fill="#fff"/><path d="m674.96 205.722c.007-2.387-1.682-5.315-3.753-6.504l-91.395-52.512c-2.07-1.191-3.765-.21-3.765 2.179v45.552c0 2.389 1.694 5.318 3.762 6.51l91.305 52.624c2.069 1.192 3.767.215 3.773-2.174z" fill="#fff"/><path d="m674.585 205.722h.75v-.014c-.002-1.281-.446-2.658-1.152-3.882-.708-1.223-1.68-2.295-2.789-2.934l-91.395-52.511c-.642-.369-1.27-.556-1.855-.557-.719-.004-1.371.299-1.806.846-.437.545-.666 1.304-.666 2.215v45.552c.002 1.283.448 2.664 1.156 3.891.71 1.227 1.684 2.302 2.794 2.944l91.304 52.624c.643.37 1.273.558 1.859.558.719.004 1.37-.298 1.806-.844.438-.544.669-1.302.671-2.212l.073-45.675-.375-.001h-.375l-.073 45.675c-.002.787-.203 1.37-.505 1.742-.304.372-.702.562-1.222.565-.423.001-.929-.138-1.484-.458l-91.305-52.624c-.958-.55-1.866-1.536-2.519-2.669-.656-1.132-1.057-2.41-1.055-3.516v-45.552c0-.788.2-1.372.501-1.745.303-.372.7-.562 1.221-.566.422 0 .927.138 1.481.457l91.396 52.512c.957.548 1.861 1.529 2.513 2.658.654 1.128 1.053 2.403 1.051 3.507z" fill="#231f20"/><path d="m634.798 273.415-.02 5.065c-.015 2.3 1.598 5.108 3.588 6.273l32.733 18.993c2 1.158 3.621.227 3.636-2.073l.032-4.648-5.794-10.09c-.931-1.62-2.165-2.87-3.391-3.577-1.232-.719-2.457-.895-3.404-.351-.942.526-2.179.355-3.405-.352-1.233-.72-2.454-1.976-3.385-3.596l-4.123-7.178c-.938-1.633-2.16-2.889-3.386-3.596-1.232-.719-2.469-.89-3.416-.346z" fill="#ae70fa"/><path d="m634.798 273.415-.375-.002-.02 5.066v-.003l-.001.035c.002 1.235.426 2.557 1.102 3.733.677 1.176 1.608 2.207 2.672 2.832l32.735 18.994c.628.363 1.24.548 1.812.549.692.004 1.32-.288 1.738-.815.422-.525.643-1.254.649-2.129l.032-4.647-.05-.19-5.794-10.089c-.961-1.672-2.233-2.967-3.528-3.716-.784-.456-1.584-.719-2.35-.72-.503 0-.993.117-1.429.368l.187.326-.183-.328c-.312.174-.664.259-1.054.26-.596.001-1.283-.206-1.981-.609l.002.001c-1.163-.677-2.348-1.888-3.249-3.458l-4.123-7.179c-.967-1.683-2.226-2.984-3.523-3.734-.782-.455-1.584-.715-2.35-.716-.509-.001-1.002.117-1.441.37l.002-.001-9.665 5.476c-.116.066-.189.19-.19.324l.375.002.185.326 9.665-5.476.002-.001c.317-.181.672-.27 1.067-.27.593-.001 1.275.207 1.973.615 1.156.665 2.342 1.875 3.25 3.458l4.123 7.179c.96 1.67 2.218 2.971 3.521 3.733l.001.001c.785.451 1.588.708 2.356.709.501 0 .987-.113 1.42-.355l.004-.002c.315-.181.665-.268 1.055-.269.591-.001 1.272.209 1.973.619 1.158.666 2.355 1.872 3.255 3.44l5.743 10.002-.031 4.546c-.005.754-.197 1.311-.483 1.664-.288.352-.661.531-1.154.535-.406 0-.896-.135-1.436-.448l-32.733-18.993c-.915-.534-1.779-1.476-2.4-2.558-.624-1.081-1.003-2.299-1.002-3.359l.001-.026v-.003l.02-5.066-.375-.001.185.326z" fill="#231f20"/><path d="m634.94 246.863-.142 26.552 9.665-5.476c.947-.544 2.184-.373 3.416.346 1.226.707 2.448 1.963 3.386 3.596l4.123 7.178c.931 1.62 2.152 2.876 3.385 3.596 1.226.707 2.463.878 3.405.352.947-.544 2.172-.368 3.404.351 1.226.707 2.46 1.957 3.391 3.577l5.787 10.078.143-26.946c.014-2.3-1.605-5.119-3.606-6.277l-32.721-18.999c-2.001-1.158-3.633-.221-3.636 2.072z" fill="#fff"/><path d="m634.94 246.863-.375-.002-.142 26.552c-.001.134.07.258.185.325.116.068.258.069.375.003l9.665-5.476.002-.001c.317-.181.672-.27 1.067-.27.593-.001 1.275.207 1.973.615 1.156.665 2.342 1.875 3.25 3.458l4.123 7.179c.96 1.67 2.218 2.971 3.521 3.733l.001.001c.785.452 1.588.708 2.356.709.501 0 .986-.113 1.42-.355l.004-.002c.315-.181.665-.268 1.055-.269.59-.001 1.272.209 1.973.619 1.158.666 2.355 1.872 3.255 3.44l5.787 10.078c.084.148.256.219.421.176.164-.043.278-.191.279-.361l.143-26.946v-.033c-.002-1.235-.428-2.56-1.106-3.738-.681-1.178-1.616-2.211-2.687-2.833l-32.721-18.999c-.628-.362-1.241-.547-1.812-.547-.694-.004-1.324.288-1.744.815-.422.525-.642 1.255-.643 2.129v-.002l.375.002h.375c0-.751.191-1.305.477-1.659.288-.351.664-.531 1.16-.535.407-.001.897.134 1.436.446l32.721 18.999c.921.532 1.789 1.474 2.413 2.558.626 1.083 1.007 2.305 1.006 3.364v.029l-.136 25.555-5.094-8.871c-.961-1.672-2.233-2.967-3.528-3.716-.784-.456-1.584-.719-2.35-.72-.503 0-.993.117-1.429.368l.187.326-.183-.328c-.312.174-.664.259-1.054.26-.596.001-1.283-.206-1.981-.609l.002.001c-1.163-.677-2.348-1.888-3.249-3.458l-4.123-7.179c-.967-1.683-2.226-2.984-3.523-3.734-.783-.455-1.584-.715-2.35-.716-.509-.001-1.002.118-1.441.37l.002-.001-9.101 5.156.138-25.904v-.002z" fill="#231f20"/><path d="m662.585 275.065c-1.699-.978-3.055-3.339-3.037-5.288.013-1.93 1.387-2.719 3.073-1.733 1.681.973 3.044 3.346 3.038 5.289-.006 1.941-1.386 2.718-3.074 1.732z" fill="#ffcf53"/><path d="m662.585 275.065.187-.325c-.769-.441-1.494-1.223-2.014-2.123-.522-.9-.837-1.916-.835-2.8v-.037c.004-.622.164-1.074.394-1.358.233-.282.528-.425.929-.428.331-.001.736.11 1.186.373.765.441 1.491 1.23 2.012 2.139.524.907.842 1.932.84 2.814l.001.024.374-.011-.375-.002c-.002.625-.16 1.077-.39 1.36-.231.281-.526.423-.926.427-.333 0-.741-.112-1.194-.377l-.002-.001-.187.325-.189.324c.541.315 1.073.478 1.572.479.598.003 1.147-.25 1.51-.706.366-.455.554-1.082.556-1.828v-.014c-.001-1.057-.364-2.185-.94-3.188-.578-1.002-1.371-1.882-2.285-2.413-.537-.313-1.066-.475-1.563-.475-.599-.004-1.148.251-1.512.706-.366.455-.556 1.081-.561 1.825l.375.002-.375-.009v.049c.001 1.057.361 2.179.936 3.175.577.995 1.371 1.868 2.289 2.398l-.002-.001z" fill="#231f20"/><path d="m630.947 240.053-26.535-15.254c-.18-.104-.409-.042-.512.138-.103.179-.042.409.138.512l26.535 15.254c.18.103.409.041.512-.138.103-.18.041-.409-.138-.512z" fill="#231f20"/><path d="m630.947 250.117-54.611-31.395c-.18-.103-.409-.041-.512.139-.104.179-.042.408.138.512l54.611 31.394c.18.103.409.042.512-.138s.041-.409-.138-.512z" fill="#231f20"/><path d="m630.947 259.989-54.611-31.394c-.18-.104-.409-.042-.512.138-.104.179-.042.409.138.512l54.611 31.395c.18.103.409.041.512-.138.103-.18.041-.409-.138-.513z" fill="#231f20"/><path d="m630.947 269.957-54.611-31.394c-.18-.103-.409-.041-.512.139-.104.179-.042.408.138.512l54.611 31.393c.18.103.409.041.512-.138.103-.18.041-.409-.138-.512z" fill="#231f20"/><path d="m630.947 279.981-54.611-31.393c-.18-.103-.409-.042-.512.138-.104.18-.042.409.138.512l54.611 31.394c.18.103.409.041.512-.139.103-.179.041-.408-.138-.512z" fill="#231f20"/><path d="m572.85 146.388 6.395 3.694v-7.386l-6.395-3.692z" fill="#fff"/><path d="m572.85 146.388-.188.325 6.396 3.694c.116.067.259.067.375 0s.187-.191.187-.325v-7.386c0-.134-.071-.258-.187-.325l-6.396-3.692c-.116-.067-.259-.067-.375 0s-.187.191-.187.325v7.384c0 .134.071.258.187.325l.188-.325h.375v-6.735l5.645 3.26v6.519l-5.833-3.368-.187.324h.375z" fill="#231f20"/><path d="m671.673 203.22 6.396 3.693v-7.385l-6.396-3.692z" fill="#fff"/><path d="m671.673 203.22-.187.325 6.395 3.693c.116.067.259.067.375 0s.188-.191.188-.325v-7.385c0-.134-.072-.258-.188-.325l-6.395-3.692c-.116-.067-.259-.067-.375 0s-.188.191-.188.325v7.384c0 .134.072.258.188.325l.187-.325h.375v-6.735l5.646 3.26v6.518l-5.833-3.367-.188.324h.375z" fill="#231f20"/><path d="m572.85 200.626 6.395 3.692v-7.385l-6.395-3.693z" fill="#fff"/><path d="m572.85 200.626-.188.324 6.396 3.693c.116.067.259.067.375 0s.187-.191.187-.325v-7.385c0-.134-.071-.257-.187-.324l-6.396-3.694c-.116-.067-.259-.067-.375 0s-.187.191-.187.325v7.386c0 .134.071.257.187.324l.188-.324h.375v-6.736l5.645 3.26v6.519l-5.833-3.368-.187.325h.375z" fill="#231f20"/><path d="m671.673 257.459 6.396 3.691v-7.386l-6.396-3.692z" fill="#fff"/><path d="m671.673 257.459-.187.324 6.395 3.693c.116.066.259.066.375 0 .116-.068.188-.192.188-.326v-7.386c0-.134-.072-.257-.188-.324l-6.395-3.693c-.116-.067-.259-.067-.375 0s-.188.191-.188.325v7.387c0 .134.072.256.188.324l.187-.324h.375v-6.737l5.646 3.259v6.521l-5.833-3.369-.188.326h.375z" fill="#231f20"/><path d="m599.418 293.525 1.082.625c.18.103.409.042.513-.137.103-.18.042-.409-.138-.513l-1.082-.625c-.179-.103-.408-.042-.512.137-.104.18-.042.409.137.513z" fill="#231f20"/><path d="m599.345 293.347.058.163.199-.01.19-.19.076-.266-.057-.143-.028-.028-.181.018c-.143.086-.257.295-.257.456z" fill="#fff"/><path d="m599.345 293.347-.353.126.057.162c.056.156.207.257.372.249l.199-.01c.093-.004.18-.043.246-.108l.191-.19.096-.163.076-.266-.013-.244-.057-.142-.083-.125-.028-.028c-.08-.08-.192-.12-.304-.108l-.18.018-.156.052c-.147.091-.242.21-.316.338-.07.13-.12.271-.122.439l.022.126.353-.126h.375l.005-.02.039-.079.023-.028.008-.007-.193-.322.038.373.181-.018-.038-.373-.266.265.029.028.265-.265-.348.141.009.023-.014.048-.019.019-.055.003.019.375.353-.126-.058-.162-.353.125h.375z" fill="#231f20"/><path d="m511.171 245.556c0 .76.247 1.312.656 1.597l.076.047.009.01.114.066 3.708 2.139c-.4-.285-.648-.846-.648-1.597 0-1.654 1.159-3.649 2.586-4.476.713-.41 1.369-.456 1.833-.181l-3.914-2.262-.01.009c-.465-.275-1.112-.237-1.826.172-1.425.826-2.584 2.822-2.584 4.476z" fill="#ff4295"/><path d="m511.546 245.556h-.75c-.001.835.274 1.524.817 1.905l.016.01.075.047.199-.318-.266.265.01.01.077.059.114.066 3.708 2.14c.173.1.394.046.503-.122.107-.169.066-.392-.097-.508-.267-.186-.491-.618-.491-1.292 0-.74.267-1.6.708-2.361.44-.762 1.053-1.422 1.691-1.791.371-.213.708-.304.975-.304.191.001.349.044.48.122l.19-.323.188-.325-3.914-2.262c-.141-.081-.318-.062-.439.046l-.01.009.251.279.19-.323c-.258-.153-.557-.229-.87-.229-.427.001-.877.138-1.333.399-.787.458-1.467 1.209-1.964 2.065-.494.857-.806 1.822-.808 2.736h.75c-.001-.739.266-1.6.708-2.361.439-.762 1.052-1.423 1.689-1.791.367-.21.695-.298.958-.298.195.001.354.045.489.125.141.083.32.066.441-.044l.01-.009-.25-.279-.187.325 3.914 2.262c.179.103.408.042.512-.136s.044-.407-.133-.512c-.257-.152-.554-.226-.862-.226-.434.001-.89.141-1.35.404-.788.46-1.468 1.21-1.965 2.066-.494.857-.806 1.821-.809 2.736 0 .828.271 1.518.805 1.902l.218-.305.187-.325-3.707-2.139-.113-.065-.189.324.265-.265-.009-.01-.067-.053-.075-.047-.199.318.215-.308c-.276-.189-.495-.604-.496-1.289z" fill="#231f20"/><path d="m515.086 247.818c0 .751.248 1.312.648 1.597l.008.01 74.139 42.363v-.01c-.446-.267-.722-.836-.722-1.644 0-1.644 1.16-3.65 2.585-4.467.723-.418 1.378-.456 1.844-.162l.01-.009-74.093-42.335c-.464-.275-1.12-.229-1.833.181-1.427.827-2.586 2.822-2.586 4.476z" fill="#fff"/><path d="m515.461 247.818h-.75c0 .828.271 1.518.805 1.902l.218-.305-.279.251.009.009.092.075 74.139 42.363c.116.067.258.066.374-.001s.187-.19.187-.324v-.01c0-.131-.07-.254-.183-.322-.294-.173-.537-.592-.54-1.322-.001-.734.266-1.595.708-2.356.44-.762 1.053-1.423 1.69-1.786.37-.215.7-.304.962-.304.198.001.358.048.495.134.142.089.326.073.451-.039l.01-.008c.089-.081.135-.199.122-.319s-.083-.226-.187-.286l-74.092-42.335-.187.326.192-.323c-.257-.152-.554-.226-.862-.226-.434.001-.89.141-1.35.404-.788.46-1.468 1.21-1.965 2.066-.494.857-.806 1.821-.809 2.736h.75c0-.74.267-1.6.708-2.361.44-.762 1.053-1.422 1.691-1.791.371-.213.708-.304.975-.304.191.001.349.044.48.122l.005.002 74.092 42.335.186-.325-.251-.279-.01.009.251.279.2-.317c-.263-.167-.573-.25-.895-.25-.43.001-.881.141-1.336.404-.788.453-1.468 1.205-1.965 2.06-.494.858-.807 1.822-.808 2.732-.003.886.307 1.606.905 1.966l.192-.322h-.375v.01h.375l.186-.326-74.138-42.363-.187.326.279-.251-.009-.01-.06-.054c-.267-.186-.491-.618-.491-1.292z" fill="#231f20"/><path d="m516.021 249.174-.009-.01c-.138-.154-.375-.166-.53-.028-.154.139-.167.376-.027.53l.009.009c.138.154.375.167.528.028.154-.138.167-.375.029-.529z" fill="#231f20"/><path d="m589.159 290.134c0 .808.276 1.377.722 1.644.096.066.209.114.323.143l.077.028 9.122 1.561-.058-.163c0-.161.114-.37.257-.456l.181-.018-5.938-7.178-.01.01c-.066-.086-.152-.153-.247-.2-.466-.294-1.121-.256-1.844.162-1.425.817-2.585 2.823-2.585 4.467z" fill="#ff4295"/><path d="m589.533 290.134h-.749c-.003.886.307 1.606.905 1.966l.192-.322-.214.308c.141.097.294.16.447.199l.09-.364-.13.351.076.028.067.019 9.122 1.56c.131.023.265-.026.351-.128.085-.102.11-.242.066-.367l-.058-.162-.353.125h.375l.005-.02.039-.079.023-.028.008-.007-.193-.322.038.373.181-.018c.138-.014.256-.103.309-.231.052-.128.03-.274-.059-.381l-5.937-7.178c-.067-.082-.166-.131-.271-.136-.106-.005-.208.035-.283.11l-.01.01.265.265.297-.229c-.105-.137-.237-.237-.375-.306l-.169.335.2-.317c-.263-.167-.573-.25-.895-.25-.43.001-.881.141-1.336.404-.788.453-1.468 1.205-1.965 2.06-.494.858-.807 1.822-.808 2.732h.749c-.001-.734.266-1.595.708-2.356.44-.762 1.053-1.423 1.69-1.786.37-.215.7-.304.962-.304.198.001.358.048.495.134l.031.017.12.095c.065.085.165.138.272.145s.214-.033.289-.109l.01-.01-.265-.265-.289.239 5.938 7.178.289-.239-.039-.373-.18.018-.156.052c-.147.091-.242.21-.316.338-.07.13-.12.271-.122.439l.022.126.057.162.354-.125.063-.37-9.088-1.555-.043-.016-.04-.012-.2-.087-.022-.014c-.294-.173-.537-.592-.54-1.322z" fill="#231f20"/><path d="m511.827 247.153v.009l.076.038z" fill="#ffcf53"/><path d="m511.827 247.153h-.375v.009c0 .141.08.271.206.334l.075.038c.179.091.397.025.496-.15.099-.174.042-.396-.128-.502l-.075-.047c-.116-.072-.261-.076-.381-.01-.119.066-.193.192-.193.328h.375l-.198.318.075.047.199-.318.169-.335-.075-.038-.17.335h.375v-.009h-.375l-.198.318z" fill="#231f20"/><path d="m599.602 292.891c-.143.086-.257.295-.257.456l.058.163.209-.314.199-.295-.028-.028z" fill="#fff"/><path d="m599.602 292.891-.194-.321c-.147.091-.242.21-.316.338-.07.13-.12.271-.122.439l.022.126.057.162c.048.134.166.229.308.247.141.017.279-.046.358-.164l.209-.314-.002.002.2-.295c.1-.149.081-.348-.046-.475l-.028-.028c-.08-.08-.192-.12-.304-.108l-.18.018-.156.052.194.321.038.373.181-.018-.038-.373-.266.265.029.028.265-.265-.311-.21-.199.295-.001.002-.209.313.312.209.353-.126-.058-.162-.353.125h.375l.005-.02.039-.079.023-.028.008-.007-.193-.322.038.373z" fill="#231f20"/><path d="m590.204 291.921v.009l.077.019z" fill="#fff"/><path d="m590.204 291.921h-.375v.009c0 .174.118.324.287.365l.076.018c.193.047.389-.064.447-.254s-.041-.392-.228-.462l-.076-.028c-.115-.043-.244-.026-.345.044s-.161.185-.161.308h.375l-.13.351.076.028.131-.351.088-.364-.076-.019-.089.364h.375v-.009h-.375l-.13.351z" fill="#231f20"/><path d="m568.331 296.641 12.295 6.8c1.179.653 2.667.332 3.48-.755.366-.493.538-1.065.538-1.626 0-.904-.446-1.786-1.271-2.3l-11.917-7.339-.137-.08c-.573-.287-1.477-.023-2.359.916-.538.561-.926 1.259-1.122 2.014-.32 1.202-.068 2.05.493 2.37z" fill="#ffcf53"/><path d="m568.331 296.641-.181.329 12.295 6.799c.467.259.978.384 1.483.383.946.001 1.875-.436 2.478-1.241.417-.561.613-1.214.613-1.851.001-1.026-.509-2.033-1.447-2.619l-.002-.001-11.917-7.339-.008-.005-.138-.08-.021-.011c-.201-.101-.427-.149-.66-.149-.689.005-1.433.396-2.139 1.144l.002-.003c-.583.609-1.002 1.363-1.214 2.18l.001-.002c-.104.388-.154.749-.154 1.08-.003.761.278 1.4.824 1.712l.004.003.181-.329.186-.325c-.24-.136-.441-.462-.445-1.061 0-.255.039-.553.129-.887v-.003c.179-.692.537-1.335 1.03-1.849l.003-.003c.61-.654 1.209-.912 1.592-.907.131 0 .237.026.325.07l.168-.335-.189.324.132.077 11.915 7.337-.002-.001c.71.443 1.093 1.2 1.094 1.982 0 .485-.148.976-.464 1.403-.456.61-1.16.939-1.877.94-.382-.001-.767-.094-1.12-.29l-12.295-6.8-.182.328.186-.325z" fill="#231f20"/><path d="m475.821 235.063c.022.172.068.424.126.744.87 4.866 5.769 26.148 21.098 21.442l5.529-8.242c-.091-3.183-1.145-5.461-2.702-7.075-3.903-4.052-10.932-3.87-13.473-3.102-4.419 1.35-8.93-2.508-10.144-3.664-.206-.195-.32-.309-.32-.309z" fill="#ffcf53"/><path d="m475.821 235.063-.372.049c.025.189.071.441.129.762.397 2.216 1.61 7.771 4.256 12.81 1.324 2.52 3.006 4.913 5.143 6.689 2.135 1.776 4.738 2.927 7.839 2.926 1.353 0 2.798-.219 4.339-.692l.202-.148 5.529-8.244.063-.219c-.091-3.259-1.183-5.645-2.807-7.324-2.75-2.845-6.899-3.652-10.098-3.655-1.548.001-2.875.189-3.754.454-.607.186-1.215.267-1.819.267-3.537.016-6.954-2.875-7.957-3.844l-.002-.001c-.202-.192-.312-.301-.312-.301-.083-.083-.201-.123-.317-.106-.117.016-.219.086-.276.189l-.114.206-.044.231.372-.049.327.182.115-.206-.328-.182-.265.265c.002.003.119.119.328.317l-.002-.002c1.071 1.007 4.539 4.034 8.475 4.051.671 0 1.355-.091 2.037-.3.774-.234 2.053-.422 3.536-.421 3.082-.003 7.043.804 9.558 3.426 1.49 1.548 2.505 3.718 2.598 6.824l.374-.01-.311-.209-5.529 8.243.311.208-.11-.359c-1.477.454-2.847.659-4.119.659-2.913-.002-5.326-1.067-7.359-2.753-3.048-2.527-5.201-6.472-6.649-10.199-1.45-3.726-2.202-7.228-2.492-8.856-.058-.32-.103-.572-.123-.726l-.372.048.327.182z" fill="#231f20"/><path d="m492.816 257.549c-2.913-.002-5.326-1.067-7.359-2.753-3.048-2.527-5.201-6.472-6.649-10.199-1.45-3.726-2.202-7.228-2.492-8.856-.001-.004-.002-.008-.003-.012.03.026.06.053.092.081 1.33 5.53 4.036 11.802 8.928 14.513 1.03.584 2.142 1.076 3.321 1.202.176.019.355.029.534.029 1.016 0 2.044-.311 2.774-1.002 1.614-1.511 1.328-4.144 2.335-6.101.642-1.237 1.809-2.176 3.149-2.519.389-.101.793-.15 1.196-.15.192 0 .384.011.574.032.132.122.261.248.386.379 1.471 1.528 2.479 3.663 2.594 6.705l-5.388 8.031c-1.428.426-2.756.62-3.992.62z" fill="#ffa81b"/><path d="m492.816 257.924c-12.025 0-16.085-17.73-16.869-22.117.091-.217.194-.435.308-.641.048.213.098.428.15.644-.032-.028-.062-.055-.092-.081.001.004.002.008.003.012.29 1.628 1.042 5.13 2.492 8.856 1.448 3.727 3.601 7.672 6.649 10.199 2.033 1.686 4.446 2.751 7.359 2.753 1.236 0 2.564-.194 3.992-.62l5.388-8.031c-.115-3.042-1.123-5.177-2.594-6.705-.125-.131-.254-.257-.386-.379.222.026.441.065.656.118 1.557 1.614 2.611 3.892 2.702 7.075l-5.529 8.242c-1.509.464-2.916.675-4.229.675z" fill="#23190a"/><path d="m497.045 257.249 71.286 39.392c-.561-.32-.813-1.168-.493-2.37.196-.755.584-1.453 1.122-2.014.882-.939 1.786-1.203 2.359-.916l-69.18-42.598c-.286-.206-.63-.309-1.019-.309-.881 0-1.968.527-3.044 1.671-.871.928-1.512 2.062-1.833 3.286-.503 1.969-.102 3.343.802 3.858z" fill="#fff"/><path d="m497.045 257.249-.181.328 71.286 39.393c.18.099.407.035.508-.145s.038-.407-.141-.509c-.24-.136-.442-.462-.445-1.061 0-.255.039-.553.128-.887l.001-.003c.179-.692.537-1.335 1.03-1.849l.003-.003c.61-.654 1.209-.912 1.592-.907.131 0 .237.026.325.07.179.09.398.022.495-.153.098-.175.04-.397-.131-.502l-69.179-42.597-.197.319.219-.304c-.354-.257-.784-.381-1.238-.38-1.033.005-2.195.598-3.318 1.789-.911.973-1.584 2.16-1.921 3.448l-.001.002c-.157.613-.232 1.177-.232 1.688-.003 1.195.421 2.137 1.212 2.589l.004.002.181-.328.186-.326c-.48-.271-.83-.899-.833-1.937 0-.437.065-.941.209-1.502l-.001.002c.304-1.16.914-2.241 1.743-3.124 1.029-1.098 2.041-1.557 2.771-1.553.324.001.582.082.8.238l.022.015 69.18 42.598.197-.319.167-.336c-.201-.101-.427-.149-.66-.149-.689.005-1.433.396-2.139 1.144l.002-.003c-.583.609-1.002 1.363-1.214 2.18l.001-.003c-.104.389-.154.75-.154 1.081-.003.761.278 1.4.824 1.712l.185-.326.182-.328-71.286-39.392-.182.328.186-.326z" fill="#231f20"/><path d="m507.438 251.561c-.348-.25-.773-.377-1.224-.376-1.006.005-2.137.588-3.232 1.745-.887.942-1.538 2.101-1.863 3.357-.155.598-.229 1.15-.229 1.65-.004 1.161.412 2.082 1.182 2.528.18.104.409.042.513-.137.103-.179.042-.408-.137-.511-.467-.27-.805-.877-.808-1.88 0-.426.063-.916.205-1.462.292-1.129.881-2.179 1.683-3.031 1.001-1.065 1.987-1.514 2.686-1.509.316.001.574.084.786.235.168.121.403.083.524-.085.12-.168.082-.403-.086-.524z" fill="#231f20"/><path d="m486.911 240.036c-1.271.467-2.64.535-3.947.176-.622-.171-.887.794-.265.964 1.465.403 3.048.348 4.478-.175.253-.094.425-.34.35-.615-.068-.245-.361-.444-.616-.35z" fill="#fff"/><path d="m488.716 240.569.064-.01-.134.018c.116-.016.232-.018.348-.007l.194-.043.16-.103.103-.162.043-.192-.017-.133-.129-.22-.101-.079c-.078-.044-.162-.068-.253-.068-.182-.017-.363.003-.543.034l-.17.09-.129.14-.06.186.009.199.051.12.179.179.12.051z" fill="#fff"/><path d="m439.916 259.063 3.762 2.172 99.162 57.254c1.51.87 3.794.966 5.105.207l10.758-6.214 4.05-2.34-3.706-2.14-99.211-57.278c-1.51-.879-3.794-.966-5.103-.215l-10.776 6.222z" fill="#ffcf53"/><path d="m439.916 259.063-.187.325 3.762 2.172 99.162 57.254c.897.515 2.007.768 3.07.77.882-.002 1.734-.175 2.409-.563l10.759-6.214 4.05-2.34c.116-.067.187-.191.187-.325s-.071-.257-.187-.324l-3.706-2.141-99.211-57.277c-.897-.521-2.009-.774-3.072-.775-.881.001-1.732.174-2.406.558l-10.776 6.223-4.041 2.333c-.116.066-.188.19-.188.324s.072.258.188.325l.187-.325.188.325 4.041-2.332 10.775-6.223c.513-.296 1.251-.459 2.032-.458.942-.001 1.944.234 2.696.673l99.212 57.278 3.143 1.816-3.487 2.015-10.759 6.214c-.514.3-1.252.464-2.034.463-.941.001-1.943-.234-2.696-.67l-99.161-57.253-3.762-2.172-.188.324.188.325z" fill="#231f20"/><path d="m437.495 256.731c.009.583.432 1.182 1.255 1.661l1.166.671 3.762 2.172 99.162 57.254c1.51.87 3.794.966 5.105.207l10.758-6.214 4.05-2.34 1.541-.886c.583-.336.879-.784.887-1.254.008-.583-.415-1.206-1.254-1.694l-104.091-60.096c-1.51-.871-3.794-.967-5.103-.208l-16.351 9.441c-.598.343-.887.807-.887 1.286z" fill="#ffd138"/><path d="m437.495 256.731-.375.006c.017.772.556 1.464 1.442 1.98l.001.001 1.166.67 3.762 2.172 99.162 57.254c.897.515 2.007.768 3.07.77.882-.002 1.734-.175 2.409-.563l10.759-6.214 4.05-2.34 1.54-.886c.657-.374 1.066-.939 1.075-1.573v-.022c-.006-.772-.545-1.481-1.441-2.002l-104.091-60.097c-.898-.516-2.009-.77-3.071-.771-.882.001-1.734.174-2.408.563l-16.35 9.441c-.677.381-1.077.972-1.075 1.611v.006l.375-.006h.375c.003-.32.179-.657.698-.961l16.352-9.442c.514-.299 1.251-.463 2.033-.462.941-.001 1.943.234 2.696.67l104.091 60.097c.765.444 1.072.968 1.066 1.353v.011-.002c-.006.308-.19.637-.699.936l-1.541.886-4.05 2.34-10.759 6.214c-.514.3-1.252.464-2.034.463-.941.001-1.943-.234-2.696-.67l-99.161-57.253-3.762-2.172-1.167-.672.002.001c-.761-.444-1.068-.949-1.069-1.342l-.375.005h.375z" fill="#231f20"/><path d="m446.703 263.201 5.478-3.163c.179-.103.241-.333.137-.512-.103-.179-.333-.24-.512-.136l-5.478 3.162c-.179.105-.24.334-.137.512.104.18.333.241.512.137z" fill="#231f20"/><path d="m455.558 268.314 5.478-3.162c.18-.104.241-.333.138-.513-.104-.179-.333-.24-.513-.137l-5.478 3.162c-.179.104-.241.333-.137.512.103.18.332.241.512.138z" fill="#231f20"/><path d="m464.413 273.427 5.479-3.163c.179-.104.241-.333.137-.512-.103-.18-.333-.241-.512-.138l-5.479 3.164c-.179.103-.24.332-.137.512.104.179.333.241.512.137z" fill="#231f20"/><path d="m473.269 278.539 5.478-3.163c.18-.103.241-.333.138-.512-.104-.179-.333-.241-.513-.137l-5.478 3.163c-.18.103-.241.333-.137.512.103.179.332.241.512.137z" fill="#231f20"/><path d="m482.124 283.652 5.479-3.162c.179-.104.241-.333.137-.513-.103-.179-.333-.241-.512-.137l-5.479 3.162c-.179.104-.24.333-.137.512.104.18.333.241.512.138z" fill="#231f20"/><path d="m490.98 288.765 5.477-3.163c.18-.104.241-.333.138-.512-.104-.18-.333-.241-.513-.138l-5.477 3.163c-.18.104-.241.333-.137.513.103.179.332.24.512.137z" fill="#231f20"/><path d="m499.835 293.877 5.478-3.163c.179-.103.241-.333.137-.512s-.333-.241-.512-.137l-5.478 3.163c-.179.103-.241.333-.137.512s.333.241.512.137z" fill="#231f20"/><path d="m508.691 298.99 5.477-3.163c.18-.103.241-.332.138-.512-.104-.179-.333-.241-.513-.137l-5.477 3.162c-.18.104-.241.333-.138.512.104.18.333.241.513.138z" fill="#231f20"/><path d="m517.546 304.103 5.478-3.163c.179-.104.241-.333.137-.513-.104-.179-.333-.24-.512-.137l-5.478 3.163c-.179.104-.241.333-.137.513.104.179.333.24.512.137z" fill="#231f20"/><path d="m526.402 309.215 5.477-3.163c.18-.104.241-.333.137-.512-.103-.18-.332-.241-.512-.137l-5.477 3.163c-.18.103-.241.333-.138.512.104.179.333.241.513.137z" fill="#231f20"/><path d="m535.257 314.327 5.478-3.162c.179-.103.24-.333.137-.512-.104-.179-.333-.241-.512-.137l-5.478 3.162c-.179.103-.241.333-.137.512.103.18.333.241.512.137z" fill="#231f20"/><path d="m455.245 251.719c.896.517 2.35.517 3.246 0 .896-.518.896-1.357 0-1.875-.896-.517-2.35-.517-3.246 0-.896.518-.896 1.357 0 1.875z" fill="#231f20"/><path d="m455.245 251.719-.187.324c.524.301 1.168.437 1.81.439.642-.002 1.286-.138 1.81-.439.519-.296.859-.746.86-1.262-.001-.515-.341-.965-.86-1.261-.524-.301-1.168-.437-1.81-.439-.642.002-1.286.138-1.81.439-.519.296-.859.746-.86 1.261.001.516.341.966.86 1.262l.187-.324.188-.325c-.377-.222-.486-.45-.485-.613-.001-.162.108-.39.485-.612.371-.216.902-.339 1.435-.338.533-.001 1.064.122 1.435.338.377.222.486.45.485.612.001.163-.108.391-.485.613-.371.216-.902.339-1.435.338-.533.001-1.064-.122-1.435-.338z" fill="#231f20"/><path d="m437.495 256.731v4.504c.009.584.432 1.183 1.255 1.662l104.09 60.097c1.51.87 3.794.966 5.105.215l16.349-9.441c.6-.343.887-.806.887-1.286v-4.48c-.008.47-.304.918-.887 1.254l-1.541.886-4.05 2.34-10.758 6.214c-1.311.759-3.595.663-5.105-.207l-99.162-57.254-3.762-2.172-1.166-.671c-.823-.479-1.246-1.078-1.255-1.661z" fill="#fff"/><path d="m437.495 256.731h-.375v4.51c.017.774.556 1.465 1.442 1.98l104.091 60.098c.9.516 2.013.769 3.078.771.879-.002 1.727-.173 2.4-.556l16.351-9.441c.677-.382 1.077-.972 1.074-1.611v-4.48c0-.206-.166-.374-.372-.375-.206-.002-.375.162-.378.368-.006.308-.19.637-.699.936l-1.541.886-4.05 2.34-10.759 6.214c-.514.3-1.252.464-2.034.463-.942.001-1.943-.235-2.696-.67l-99.161-57.253-3.762-2.172-1.167-.672.002.001c-.761-.444-1.068-.949-1.069-1.342-.003-.206-.171-.371-.377-.37-.206.002-.373.169-.373.375h.375l-.375.006c.017.772.556 1.464 1.442 1.98l.001.001 1.166.67 3.762 2.172 99.162 57.254c.897.515 2.007.768 3.07.77.882-.002 1.735-.175 2.41-.563l10.758-6.214 4.05-2.34 1.54-.886c.657-.374 1.066-.939 1.075-1.573l-.375-.006h-.375v4.48c-.003.321-.178.656-.698.961l-16.351 9.441c-.512.295-1.247.457-2.026.456-.944.001-1.949-.234-2.704-.671l-104.089-60.097c-.76-.443-1.067-.948-1.068-1.342l-.375.005h.375v-4.504h-.375l-.375.006z" fill="#231f20"/><path d="m545.155 109.966v49.542c0 3.868-2.346 8.353-5.247 10.021l-89.049 51.416c-1.355.785-2.6.81-3.531.218l-.108-.073c-.992-.702-1.608-2.127-1.608-4.111v-49.541c0-3.869 2.357-8.353 5.247-10.034l84.878-48.998 1.172-.677 2.999-1.728c1.233-.714 2.369-.798 3.263-.363 1.209.581 1.984 2.103 1.984 4.328z" fill="#fff"/><path d="m545.53 109.966h-.75v49.542c.001 1.858-.569 3.897-1.493 5.661-.922 1.766-2.202 3.254-3.566 4.035l-89.05 51.416c-.693.402-1.334.579-1.893.579-.47 0-.884-.122-1.248-.353l-.202.317.21-.311-.108-.073-.21.311.216-.307c-.852-.596-1.45-1.892-1.449-3.804v-49.541c-.002-1.858.57-3.897 1.497-5.664.924-1.767 2.204-3.258 3.563-4.046l-.001.001 84.878-48.998 1.173-.677 2.998-1.728c.694-.402 1.333-.579 1.891-.579.374 0 .714.079 1.021.228l.002.001c.515.248.952.7 1.268 1.369.315.669.503 1.552.503 2.621h.75c-.001-1.155-.201-2.146-.575-2.94-.372-.794-.928-1.394-1.622-1.726l.002.001c-.411-.201-.869-.304-1.349-.304-.718 0-1.484.227-2.266.679l-2.998 1.728-1.173.678-84.878 48.997-.001.001c-1.53.893-2.873 2.484-3.851 4.346-.975 1.864-1.581 4.002-1.582 6.012v49.541c0 2.055.635 3.611 1.767 4.417l.006.004.108.074.009.005c.484.309 1.049.471 1.651.47.719 0 1.487-.226 2.269-.679l89.048-51.416c1.537-.886 2.88-2.476 3.856-4.337.974-1.862 1.577-4 1.579-6.009z" fill="#231f20"/></g><path d="m531.076 123.472 4.199-2.424" fill="none"/><path d="m531.264 123.797 4.198-2.424c.18-.104.241-.333.137-.512-.103-.18-.332-.241-.512-.138l-4.198 2.425c-.179.103-.241.333-.137.512.103.179.333.241.512.137z" fill="#231f20" fill-rule="nonzero"/><path d="m531.076 133.169 4.199-2.424" fill="none"/><path d="m531.264 133.494 4.198-2.424c.18-.104.241-.333.137-.513-.103-.179-.332-.24-.512-.137l-4.198 2.424c-.179.104-.241.333-.137.513.103.179.333.24.512.137z" fill="#231f20" fill-rule="nonzero"/><path d="m526.877 145.29 8.398-4.848" fill="none"/><path d="m527.065 145.615 8.397-4.848c.18-.104.241-.333.137-.512-.103-.18-.332-.241-.512-.138l-8.397 4.848c-.18.104-.241.333-.138.512.104.18.333.241.513.138z" fill="#231f20" fill-rule="nonzero"/><path d="m531.076 152.563 4.199-2.425" fill="none"/><path d="m531.264 152.888 4.198-2.425c.18-.103.241-.333.137-.512-.103-.179-.333-.241-.512-.137l-4.198 2.424c-.179.104-.241.333-.137.513.103.179.333.241.512.137z" fill="#231f20" fill-rule="nonzero"/><path d="m531.076 162.26 4.199-2.424" fill="none"/><path d="m531.264 162.584 4.198-2.424c.18-.103.241-.332.137-.512-.103-.179-.332-.241-.512-.137l-4.198 2.424c-.179.103-.241.333-.137.512.103.179.333.241.512.137z" fill="#231f20" fill-rule="nonzero"/><path d="m505.883 138.017 20.994-12.121" fill="none"/><path d="m506.071 138.342 20.994-12.121c.179-.104.241-.333.137-.512-.104-.18-.333-.241-.512-.138l-20.994 12.122c-.18.103-.241.332-.138.512.104.179.333.241.513.137z" fill="#231f20" fill-rule="nonzero"/><path d="m522.677 138.017 4.2-2.423" fill="none"/><path d="m522.865 138.342 4.2-2.424c.179-.103.241-.333.137-.512s-.333-.241-.512-.137l-4.199 2.424c-.181.103-.241.332-.138.512.103.179.332.241.512.137z" fill="#231f20" fill-rule="nonzero"/><path d="m522.677 147.715 4.2-2.425" fill="none"/><path d="m522.866 148.039 4.199-2.424c.179-.104.241-.333.137-.513-.104-.179-.333-.241-.512-.137l-4.2 2.425c-.18.103-.24.333-.137.512s.332.241.513.137z" fill="#231f20" fill-rule="nonzero"/><path d="m518.479 159.836 8.398-4.849" fill="none"/><path d="m518.667 160.16 8.398-4.848c.179-.104.241-.333.137-.512-.104-.18-.333-.241-.512-.138l-8.398 4.849c-.18.103-.241.333-.137.512.103.18.332.241.512.137z" fill="#231f20" fill-rule="nonzero"/><path d="m522.677 167.108 4.2-2.424" fill="none"/><path d="m522.865 167.433 4.2-2.424c.179-.103.241-.333.137-.512-.104-.18-.333-.241-.512-.137l-4.199 2.423c-.181.104-.241.333-.138.513.103.179.332.24.512.137z" fill="#231f20" fill-rule="nonzero"/><path d="m514.281 133.169 4.198-2.424" fill="none"/><path d="m514.468 133.494 4.199-2.424c.18-.104.241-.333.138-.513-.104-.179-.333-.24-.513-.137l-4.199 2.424c-.179.104-.241.333-.137.513.103.179.333.24.512.137z" fill="#231f20" fill-rule="nonzero"/><path d="m514.281 142.866 4.198-2.424" fill="none"/><path d="m514.468 143.191 4.199-2.424c.18-.104.241-.333.138-.512-.104-.18-.333-.241-.513-.138l-4.199 2.424c-.179.104-.241.333-.137.512.103.18.333.241.512.138z" fill="#231f20" fill-rule="nonzero"/><path d="m514.281 162.26 4.198-2.424" fill="none"/><path d="m514.468 162.584 4.199-2.424c.18-.103.241-.332.138-.512-.104-.179-.333-.241-.513-.137l-4.199 2.424c-.179.103-.241.333-.137.512.103.179.333.241.512.137z" fill="#231f20" fill-rule="nonzero"/><path d="m514.281 171.957 8.396-4.849" fill="none"/><path d="m514.468 172.282 8.398-4.849c.178-.104.24-.333.137-.512-.104-.18-.334-.241-.513-.138l-8.397 4.849c-.179.104-.241.333-.137.512.103.18.333.241.512.138z" fill="#231f20" fill-rule="nonzero"/><path d="m505.883 138.017 4.198-2.423" fill="none"/><path d="m506.071 138.342 4.198-2.424c.179-.103.241-.333.137-.512-.103-.179-.333-.241-.512-.137l-4.198 2.424c-.18.103-.241.332-.138.512.104.179.333.241.513.137z" fill="#231f20" fill-rule="nonzero"/><path d="m505.883 176.805 8.398-4.848" fill="none"/><path d="m506.071 177.13 8.397-4.848c.178-.104.241-.333.136-.513-.102-.179-.333-.241-.511-.137l-8.397 4.849c-.18.103-.241.333-.138.512.104.179.333.241.513.137z" fill="#231f20" fill-rule="nonzero"/><path d="m497.485 142.866 4.199-2.424" fill="none"/><path d="m497.672 143.191 4.199-2.424c.18-.104.241-.333.138-.512-.104-.18-.333-.241-.513-.138l-4.199 2.424c-.179.104-.241.333-.137.512.103.18.333.241.512.138z" fill="#231f20" fill-rule="nonzero"/><path d="m497.485 181.654 4.199-2.425" fill="none"/><path d="m497.672 181.979 4.199-2.425c.18-.104.241-.333.138-.512-.104-.18-.333-.241-.513-.138l-4.199 2.425c-.179.104-.241.333-.137.513.103.179.333.24.512.137z" fill="#231f20" fill-rule="nonzero"/><path d="m480.689 152.563 12.596-7.272" fill="none"/><path d="m480.876 152.888 12.597-7.272c.179-.104.241-.333.137-.513-.103-.179-.333-.241-.512-.137l-12.597 7.272c-.179.104-.241.333-.137.513.104.179.333.241.512.137z" fill="#231f20" fill-rule="nonzero"/><path d="m476.491 193.775 16.794-9.697" fill="none"/><path d="m476.678 194.1 16.795-9.697c.179-.104.241-.333.137-.513-.103-.179-.333-.24-.512-.137l-16.795 9.697c-.179.104-.241.333-.137.513.103.179.333.24.512.137z" fill="#231f20" fill-rule="nonzero"/><path d="m480.689 152.563 4.199-2.425" fill="none"/><path d="m480.876 152.888 4.2-2.425c.179-.103.24-.333.137-.512-.104-.179-.333-.241-.513-.137l-4.199 2.424c-.179.104-.241.333-.137.513.104.179.333.241.512.137z" fill="#231f20" fill-rule="nonzero"/><path d="m480.689 191.35 4.199-2.423" fill="none"/><path d="m480.876 191.675 4.199-2.424c.18-.103.241-.333.138-.512-.104-.179-.333-.241-.512-.137l-4.2 2.424c-.179.103-.241.332-.137.512.104.179.333.241.512.137z" fill="#231f20" fill-rule="nonzero"/><path d="m472.291 157.412 4.2-2.425" fill="none"/><path d="m472.479 157.737 4.199-2.425c.179-.104.241-.333.137-.512-.103-.18-.333-.241-.512-.138l-4.199 2.425c-.18.104-.241.333-.137.512.103.18.332.241.512.138z" fill="#231f20" fill-rule="nonzero"/><path d="m459.695 174.382 16.796-9.698" fill="none"/><path d="m459.882 174.706 16.796-9.697c.179-.103.241-.333.137-.512-.103-.18-.333-.241-.512-.137l-16.796 9.697c-.179.103-.241.333-.137.512.103.179.333.241.512.137z" fill="#231f20" fill-rule="nonzero"/><path d="m472.291 186.503 4.2-2.425" fill="none"/><path d="m472.479 186.827 4.199-2.424c.179-.104.241-.333.137-.513-.103-.179-.333-.24-.512-.137l-4.199 2.425c-.18.103-.241.333-.137.512.103.18.332.241.512.137z" fill="#231f20" fill-rule="nonzero"/><path d="m472.291 196.199 4.2-2.424" fill="none"/><path d="m472.479 196.524 4.199-2.424c.179-.104.241-.333.137-.512-.103-.18-.333-.241-.512-.138l-4.199 2.424c-.18.104-.241.333-.137.512.103.18.332.241.512.138z" fill="#231f20" fill-rule="nonzero"/><path d="m463.894 162.261 8.397-4.849" fill="none"/><path d="m464.081 162.585 8.398-4.848c.179-.104.241-.333.137-.513-.103-.179-.333-.24-.512-.137l-8.398 4.849c-.179.103-.24.333-.137.512.104.179.333.241.512.137z" fill="#231f20" fill-rule="nonzero"/><path d="m463.894 171.957 4.198-2.424" fill="none"/><path d="m464.081 172.282 4.199-2.424c.179-.104.24-.333.137-.513-.104-.179-.333-.24-.512-.137l-4.199 2.424c-.179.104-.24.333-.137.512.104.18.333.241.512.138z" fill="#231f20" fill-rule="nonzero"/><path d="m463.894 181.654 4.198-2.425" fill="none"/><path d="m464.081 181.979 4.199-2.425c.179-.104.24-.333.137-.512-.104-.18-.333-.241-.512-.137l-4.199 2.424c-.179.104-.24.333-.137.513.104.179.333.24.512.137z" fill="#231f20" fill-rule="nonzero"/><path d="m463.894 191.351 4.198-2.424" fill="none"/><path d="m464.081 191.676 4.199-2.425c.179-.103.24-.333.137-.512-.104-.179-.333-.241-.512-.137l-4.199 2.425c-.179.103-.24.333-.137.512.104.179.333.241.512.137z" fill="#231f20" fill-rule="nonzero"/><path d="m463.894 201.048 4.198-2.424" fill="none"/><path d="m464.081 201.372 4.199-2.423c.179-.104.24-.333.137-.513-.104-.179-.333-.241-.512-.137l-4.199 2.424c-.179.103-.24.333-.137.512.104.179.333.241.512.137z" fill="#231f20" fill-rule="nonzero"/><path d="m455.495 167.108 4.2-2.424" fill="none"/><path d="m455.683 167.433 4.199-2.424c.179-.103.241-.333.137-.512-.103-.18-.332-.241-.512-.137l-4.199 2.423c-.179.104-.241.333-.137.513.103.179.333.24.512.137z" fill="#231f20" fill-rule="nonzero"/><path d="m455.495 176.805 4.2-2.423" fill="none"/><path d="m455.683 177.13 4.199-2.424c.179-.103.241-.333.137-.512-.103-.179-.332-.241-.512-.137l-4.199 2.424c-.179.103-.241.333-.137.512.103.179.333.241.512.137z" fill="#231f20" fill-rule="nonzero"/><path d="m455.495 186.503 4.2-2.425" fill="none"/><path d="m455.683 186.827 4.199-2.424c.179-.104.241-.333.137-.513-.103-.179-.333-.24-.512-.137l-4.199 2.425c-.179.103-.241.333-.137.512.103.18.333.241.512.137z" fill="#231f20" fill-rule="nonzero"/><path d="m455.495 196.199 8.399-4.848" fill="none"/><path d="m455.683 196.524 8.398-4.848c.18-.103.241-.333.138-.512-.104-.18-.333-.241-.513-.137l-8.398 4.847c-.179.104-.241.333-.137.512.103.18.333.241.512.138z" fill="#231f20" fill-rule="nonzero"/><path d="m455.495 205.896 4.2-2.424" fill="none"/><path d="m455.683 206.221 4.199-2.424c.179-.103.241-.333.137-.512-.103-.179-.332-.241-.512-.137l-4.199 2.423c-.179.104-.241.333-.137.513.103.179.333.241.512.137z" fill="#231f20" fill-rule="nonzero"/><path d="m488.023 156.875-9.395 16.272 9.395 5.424" fill="#fff" fill-rule="nonzero"/><path d="m487.698 156.687-9.395 16.273c-.103.179-.042.408.138.512l9.394 5.424c.18.103.409.042.513-.137.103-.18.042-.409-.138-.513l-9.07-5.236 9.208-15.948c.103-.179.042-.408-.138-.512-.179-.104-.408-.042-.512.137z" fill="#231f20" fill-rule="nonzero"/><path d="m502.748 170.069 9.395-16.271-9.395-5.424" fill="#fff" fill-rule="nonzero"/><path d="m503.073 170.257 9.395-16.272c.05-.087.063-.188.037-.284-.026-.097-.088-.178-.175-.228l-9.394-5.424c-.18-.104-.409-.042-.512.137-.104.18-.042.409.137.513l9.07 5.236-9.207 15.947c-.104.179-.043.408.137.512.179.103.409.042.512-.137z" fill="#231f20" fill-rule="nonzero"/><path d="m543.168 105.639c-.889-.432-2.028-.354-3.259.367l-2.998 1.728-1.178.667-84.879 48.998c-1.44.851-2.749 2.396-3.704 4.215l-8.247-4.817c.956-1.807 2.264-3.352 3.704-4.176l89.055-51.42c1.296-.746 2.474-.798 3.404-.287l.235.143z" fill="#fff" fill-rule="nonzero"/><path d="m543.168 105.639.164-.337c-.41-.2-.867-.303-1.348-.303-.716 0-1.483.226-2.264.683l.002-.001-2.998 1.728.003-.002-1.179.668-.003.001-84.879 48.998-.003.002c-1.523.903-2.864 2.498-3.845 4.364l.332.174.189-.324-8.247-4.817-.189.324.331.175c.93-1.761 2.208-3.255 3.559-4.026h.001l89.056-51.42c.692-.399 1.326-.574 1.883-.574.423.001.805.1 1.152.29l.181-.328-.196.319.235.144.007.004 7.868 4.582.188-.324.164-.337-.164.337.189-.324-7.861-4.578-.235-.143-.015-.009c-.456-.251-.97-.383-1.513-.382-.716 0-1.478.224-2.258.673l-89.056 51.42.001-.001c-1.528.879-2.866 2.474-3.849 4.326-.094.178-.031.398.143.499l8.247 4.818c.088.052.193.065.292.036.099-.028.181-.094.229-.186.928-1.773 2.207-3.268 3.563-4.066l-.191-.323.187.325 84.879-48.998-.003.001 1.179-.667.003-.001 2.998-1.728.002-.002c.69-.404 1.328-.58 1.885-.58.375 0 .714.079 1.02.227.182.088.4.017.495-.161.095-.177.032-.399-.142-.5z" fill="#231f20" fill-rule="nonzero"/><path d="m447.215 221.084-7.973-4.62h-.012c-1.139-.629-1.859-2.134-1.859-4.282v-49.546c0-1.938.589-4.02 1.532-5.839l8.247 4.817c-.943 1.819-1.532 3.888-1.532 5.825v49.534c0 1.991.616 3.417 1.597 4.111z" fill="#2b2829" fill-rule="nonzero"/><path d="m447.215 221.084.188-.325-7.972-4.62-.189-.05h-.012v.375l.181-.329c-.968-.527-1.665-1.88-1.665-3.953v-49.546c-.001-1.862.571-3.895 1.49-5.667l-.333-.172-.189.323 8.247 4.818.189-.324-.333-.172c-.966 1.865-1.572 3.984-1.574 5.997v49.534c.001 2.062.633 3.618 1.756 4.417l.216-.306.188-.325-.188.325.217-.307c-.841-.587-1.44-1.885-1.439-3.804v-49.534c-.001-1.861.57-3.88 1.49-5.653.092-.177.029-.395-.144-.496l-8.247-4.817c-.089-.052-.195-.065-.294-.037-.099.029-.181.097-.228.188-.966 1.867-1.573 3.998-1.574 6.012v49.546c0 2.223.743 3.879 2.052 4.61l.182.047h.012v-.375l-.188.324 7.973 4.62c.173.101.396.047.504-.122.108-.168.064-.393-.099-.509z" fill="#231f20" fill-rule="nonzero"/><path d="m533.671 235.616-19.275-11.129v-22.257l19.275 11.129z" fill="#2b2829" fill-rule="nonzero"/><path d="m533.671 235.616.188-.325-19.088-11.02v-21.391l18.525 10.696v22.04h.375l.188-.325-.188.325h.375v-22.257c0-.134-.071-.258-.187-.325l-19.276-11.129c-.117-.067-.26-.067-.375 0-.117.067-.187.191-.187.325v22.257c0 .134.07.258.187.325l19.276 11.129c.116.067.259.067.375 0s.187-.191.187-.325z" fill="#231f20" fill-rule="nonzero"/><path d="m552.947 224.487-19.276 11.129v-22.257l19.276-11.129z" fill="#fff" fill-rule="nonzero"/><path d="m552.947 224.487-.188-.325-18.713 10.804v-21.39l18.526-10.696v21.607h.375l-.188-.325.188.325h.375v-22.257c0-.134-.072-.258-.188-.325s-.259-.067-.375 0l-19.275 11.129c-.116.067-.188.191-.188.325v22.257c0 .134.072.258.188.325s.259.067.375 0l19.275-11.129c.116-.067.188-.191.188-.325z" fill="#231f20" fill-rule="nonzero"/><path d="m533.671 213.359-19.275-11.129 19.275-11.128 19.276 11.128z" fill="#fff" fill-rule="nonzero"/><path d="m533.671 213.359.188-.325-18.713-10.804 18.525-10.695 18.525 10.695-18.712 10.804.187.325.188-.325-.188.325.188.325 19.275-11.129c.116-.067.188-.191.188-.325s-.072-.258-.188-.325l-19.275-11.127c-.116-.067-.259-.067-.375 0l-19.276 11.127c-.117.067-.187.191-.187.325s.07.258.187.325l19.276 11.129c.116.067.259.067.375 0z" fill="#231f20" fill-rule="nonzero"/></g></svg>