<?xml version="1.0" encoding="UTF-8"?>
<svg width="1820px" height="446px" viewBox="0 0 1820 446" version="1.1" xmlns="http://www.w3.org/2000/svg" xmlns:xlink="http://www.w3.org/1999/xlink">
    <title>logo-full-design-system copy</title>
    <defs>
        <path d="M458.417753,28.9118932 L411.431439,253.632115 C409.106128,264.75332 399.301157,272.720222 387.939455,272.720222 L335.465923,272.720222 L335.465923,272.720222 L307.174386,272.720222 C298.33783,272.720222 291.174386,265.556778 291.174386,256.720222 C291.174386,255.619948 291.287879,254.52261 291.513063,253.445626 L297.416228,225.212712 C298.966414,217.798678 305.502909,212.48744 313.077272,212.487308 L335.058756,212.486925 C342.633082,212.486793 349.169554,207.175606 350.719779,199.761619 L375.864293,79.507381 C377.672857,70.8578827 372.127184,62.3799486 363.477686,60.571385 C362.400671,60.346187 361.303298,60.232687 360.202992,60.232687 L297.928871,60.232687 C290.354403,60.232687 283.817756,65.5439549 282.267548,72.9580915 L238.368716,282.911893 C236.043405,294.033098 226.238434,302 214.876732,302 L24,302 C10.745166,302 4.4408921e-14,291.254834 4.26325641e-14,278 C4.26325641e-14,276.34959 0.170239604,274.703582 0.508016153,273.088107 L53.6163821,19.0881068 C55.9416932,7.96690192 65.7466641,5.63982445e-15 77.108366,0 L434.925769,0 C448.180603,-2.7094705e-14 458.925769,10.745166 458.925769,24 C458.925769,25.6504099 458.75553,27.2964181 458.417753,28.9118932 Z M192.334543,60.1711748 L131.028434,60.1711748 C123.455624,60.1711748 116.91993,65.4801705 115.368016,72.8922562 L83.9228643,223.077202 C82.1119676,231.726212 87.6553537,240.205642 96.3043637,242.016539 C97.3827298,242.242323 98.4815329,242.356121 99.5832823,242.356121 L160.889391,242.356121 C168.462201,242.356121 174.997895,237.047125 176.549809,229.635039 L207.994961,79.4500934 C209.805857,70.8010834 204.262471,62.3216535 195.613461,60.5107568 C194.535095,60.2849726 193.436292,60.1711748 192.334543,60.1711748 Z" id="path-1"></path>
    </defs>
    <g id="Page-1" stroke="none" stroke-width="1" fill="none" fill-rule="evenodd">
        <g id="Artboard" transform="translate(-102.000000, -1262.000000)">
            <g id="logo-full-design-system-copy" transform="translate(168.537115, 1334.000000)">
                <g id="logo-copy">
                    <mask id="mask-2" fill="white">
                        <use xlink:href="#path-1"></use>
                    </mask>
                    <use id="Combined-Shape" fill="#FF4296" xlink:href="#path-1"></use>
                    <rect id="Rectangle" fill="#FF4296" mask="url(#mask-2)" x="-20.5371154" y="-20" width="502" height="342"></rect>
                    <path d="M78.4628846,168.678517 C200.039012,130.57298 300.531192,114.38887 379.939426,120.126186 C497.861483,120.126186 548.399494,190.178517 652.250154,190.178517 C706.575322,190.178517 779.979566,183.01185 872.462885,168.678517 L872.462885,329.678517 L78.4628846,329.678517 L78.4628846,168.678517 Z" id="Rectangle" fill="#FFD238" mask="url(#mask-2)"></path>
                    <path d="M-133.537115,199.678517 C-35.2350075,161.57298 46.0193752,145.38887 110.226033,151.126186 C205.57359,151.126186 246.436818,221.178517 330.406747,221.178517 C374.332135,221.178517 433.684181,214.01185 508.462885,199.678517 L508.462885,360.678517 L-133.537115,360.678517 L-133.537115,199.678517 Z" id="Rectangle" fill="#AE70FA" mask="url(#mask-2)"></path>
                    <path d="M434.925769,-10 C444.31461,-10 452.81461,-6.19442037 458.9674,-0.0416305603 C465.12019,6.11115925 468.925769,14.6111593 468.925769,24 C468.925769,26.0782939 468.735213,28.1516609 468.35679,30.1941009 L468.20608,30.9585154 L421.219766,255.678737 C419.57267,263.556257 415.276529,270.316628 409.380193,275.107619 C403.617865,279.789724 396.327252,282.590949 388.487307,282.715859 L387.939455,282.720222 L307.174386,282.720222 C299.994684,282.720222 293.494684,279.810072 288.78961,275.104998 C284.084535,270.399923 281.174386,263.899923 281.174386,256.720222 C281.174386,255.155771 281.315587,253.59497 281.596028,252.056786 L281.724737,251.399004 L287.627902,223.16609 C288.887428,217.142188 292.172642,211.972546 296.681517,208.308853 C301.061567,204.749836 306.596353,202.611944 312.550649,202.492586 L313.077098,202.487308 L335.058582,202.486925 C336.478768,202.4869 337.801655,201.988964 338.842163,201.143503 C339.813303,200.354407 340.53846,199.262578 340.867154,197.990286 L340.931466,197.714935 L366.07598,77.4606972 C366.415085,75.8389163 366.064731,74.2332195 365.224156,72.9481915 C364.38358,71.6631636 363.052783,70.6988044 361.431002,70.3596987 C361.128091,70.2963618 360.820887,70.2565862 360.512144,70.2406569 L360.202992,70.232687 L297.928871,70.232687 C296.508658,70.232687 295.185741,70.7306184 294.145211,71.5760874 C293.17405,72.3651918 292.44888,73.4570401 292.120186,74.7293567 L292.055875,75.0047137 L248.157043,284.958515 C246.509948,292.836035 242.213806,299.596407 236.31747,304.387398 C230.555142,309.069503 223.264529,311.870728 215.424584,311.995638 L214.876732,312 L24,312 C14.6111593,312 6.11115925,308.19442 -0.0416305603,302.041631 C-6.19442037,295.888841 -10,287.388841 -10,278 C-10,275.921706 -9.80944374,273.848339 -9.43102027,271.805899 L-9.28031045,271.041485 L43.8280555,17.0414846 C45.4751509,9.1639645 49.7712924,2.40359335 55.6676282,-2.38739778 C61.4299563,-7.06950274 68.720569,-9.87072771 76.5605141,-9.99563767 L77.108366,-10 L434.925769,-10 Z M192.334543,70.1711748 L131.028434,70.1711748 L130.745804,70.1777665 C129.43343,70.2390814 128.216497,70.7252371 127.245417,71.514053 C126.204974,72.3592129 125.446761,73.5518143 125.155777,74.9415803 L125.155777,74.9415803 L93.7106256,225.126526 L93.6578227,225.41248 C93.4139462,226.936023 93.7704285,228.42961 94.5612323,229.639262 C95.4014613,230.924516 96.7319985,231.889234 98.3536879,232.228778 C98.7580751,232.313447 99.1701263,232.356121 99.5832823,232.356121 L99.5832823,232.356121 L160.889391,232.356121 L161.17202,232.349529 C162.484395,232.288214 163.701328,231.802058 164.672408,231.013243 C165.712851,230.168083 166.471064,228.975481 166.762048,227.585715 L166.762048,227.585715 L198.207199,77.4007693 L198.260002,77.1148159 C198.503879,75.5912724 198.147396,74.0976855 197.356593,72.888034 C196.516364,71.6027793 195.185826,70.6380612 193.564137,70.2985181 C193.15975,70.213849 192.747699,70.1711748 192.334543,70.1711748 L192.334543,70.1711748 Z" id="Combined-Shape" stroke="#710277" stroke-width="20"></path>
                </g>
                <g id="Nomimono" transform="translate(543.462885, 60.000000)" fill="#710277" fill-rule="nonzero">
                    <path d="M26.3324873,171 C23.9450085,170.720862 21.7681895,170.162586 19.8020305,169.325171 C17.8358714,168.487757 15.8697124,167.510774 13.9035533,166.394221 C8.84771574,160.532321 5.54737733,153.867899 4.00253807,146.400955 C2.45769882,138.934011 1.12351946,131.432174 0,123.895446 L0,108.821988 C2.52791878,91.236288 5.89847716,73.8948335 10.1116751,56.7976249 C14.3248731,39.7004163 19.0296108,22.777669 24.2258883,6.02938296 L28.8604061,5.19196866 L31.3883249,5.61067581 C32.7927242,4.77326151 34.2673435,4.14520078 35.8121827,3.72649363 C37.357022,3.30778648 39.1125212,3.23800196 41.0786802,3.51714006 C43.606599,3.51714006 45.9238579,4.07541626 48.0304569,5.19196866 C50.1370558,6.30852106 52.0329949,7.84378061 53.7182741,9.79774731 C60.4593909,26.4064643 67.4813875,42.9453967 74.784264,59.4145446 C82.0871404,75.8836925 91.9179357,91.0967189 104.27665,105.053624 L105.540609,105.472331 C108.068528,88.1657689 110.175127,70.7545299 111.860406,53.2386141 C113.545685,35.7226983 118.039763,19.0093046 125.34264,3.09843291 C126.747039,1.70274241 128.397208,0.795543585 130.293147,0.376836435 C132.189086,-0.041870715 134.260575,-0.11165524 136.507614,0.16748286 C139.035533,0.16748286 141.282572,0.72575906 143.248731,1.84231146 C145.21489,2.95886386 147.040609,4.35455436 148.725888,6.02938296 C154.905245,11.612145 159.118443,17.997429 161.365482,25.1852351 C163.612521,32.3730411 165.15736,39.8748776 166,47.6907444 L166,63.6016161 C165.43824,78.3959354 163.612521,93.1204701 160.522843,107.77522 C157.433164,122.429971 150.411168,135.409892 139.456853,146.714985 C135.243655,150.343781 130.854907,153.344515 126.290609,155.717189 C121.726311,158.089863 116.494924,159.136631 110.596447,158.857493 C106.102369,158.020078 101.889171,156.415034 97.9568528,154.04236 C94.0245347,151.669687 90.3730964,148.529383 87.0025381,144.62145 C78.2952623,135.828599 71.3434856,126.198335 66.1472081,115.730656 C60.9509306,105.262977 56.5270728,94.4463761 52.8756345,83.2808521 L52.0329949,83.2808521 L52.0329949,84.5369736 C52.8756345,90.3988737 53.7884941,96.1909892 54.7715736,101.91332 C55.7546531,107.635651 56.3866328,113.427767 56.6675127,119.289667 L56.6675127,144.62145 C55.8248731,148.250245 54.8417936,151.739471 53.7182741,155.089128 C52.5947547,158.438786 50.6285956,161.509305 47.819797,164.300686 C44.7301184,166.53379 41.42978,168.208619 37.9187817,169.325171 C34.4077834,170.441724 30.5456853,171 26.3324873,171 Z" id="Path"></path>
                    <path d="M223.732596,181 C218.152679,180.721267 213.130754,179.3276 208.666821,176.819001 C204.202888,174.310402 199.948202,170.826236 195.902762,166.366504 C191.438829,159.398172 187.742134,152.116266 184.812678,144.520784 C181.883222,136.925303 180.278996,128.946563 180,120.584566 C180.278996,111.943834 181.813473,103.86057 184.603431,96.3347718 C187.393389,88.8089738 191.578327,81.8406423 197.158243,75.4297772 C202.04067,70.4125785 207.271842,66.3012629 212.851759,63.0958304 C218.431675,59.8903979 224.709081,58.5664149 231.683977,59.1238814 C240.611843,59.9600812 248.84222,62.5383639 256.375108,66.8587295 C263.907995,71.179095 270.882891,76.6840769 277.299795,83.3736752 C283.716699,90.62074 288.668875,98.5646379 292.156322,107.205369 C295.64377,115.8461 297.247996,125.044298 296.969,134.799962 C296.411009,140.513994 294.876532,145.740242 292.365569,150.478708 C289.854607,155.217173 286.506657,159.537539 282.32172,163.439805 C275.904816,168.17827 268.999669,171.941169 261.606279,174.728502 C254.21289,177.515834 246.470756,179.606334 238.379877,181 L223.732596,181 Z M237.542889,150.478708 C239.216864,148.527575 240.472345,146.506759 241.309333,144.416259 C242.14632,142.32576 242.84381,139.956527 243.401802,137.308561 L243.401802,123.511265 C242.84381,118.215333 242.006823,112.989084 240.890839,107.832519 C239.774856,102.675954 237.821885,97.8678048 235.031927,93.4080726 L234.194939,93.4080726 C234.194939,94.5230056 234.12519,95.4985721 233.985693,96.3347718 C233.846195,97.1709716 233.357952,97.8678048 232.520964,98.4252713 L229.173015,99.2614711 C227.49904,104.836136 226.034311,110.480485 224.77883,116.194517 C223.523349,121.908549 222.895608,127.83163 222.895608,133.963762 C223.174604,137.029828 223.941843,139.921686 225.197324,142.639335 C226.452805,145.356984 228.057031,147.970109 230.010002,150.478708 C230.846989,151.036174 231.823475,151.314908 232.939458,151.314908 C234.055441,151.314908 235.171425,151.314908 236.287408,151.314908 L237.542889,150.478708 Z" id="Shape"></path>
                    <path d="M334.028302,173 C332.628931,172.434682 331.22956,171.798699 329.830189,171.092051 C328.430818,170.385404 327.171384,169.325432 326.051887,167.912137 C319.334906,158.301729 314.996855,147.878677 313.037736,136.64298 C311.078616,125.407282 309.679245,113.994923 308.839623,102.405902 L308.839623,77.3905759 L309.679245,67.6388386 L308.839623,67.2148501 C308.279874,66.649532 308,65.8722196 308,64.8829129 C308,63.8936062 308,62.9749643 308,62.1269871 C309.959119,59.5830557 311.918239,57.109789 313.877358,54.7071871 C315.836478,52.3045851 318.215409,50.3966365 321.014151,48.9833413 L328.150943,48.5593527 C330.110063,49.1246708 331.999214,50.0433127 333.818396,51.3152784 C335.637579,52.5872442 337.386792,54.0712042 339.066038,55.7671585 L342.004717,60.0070443 L342.84434,60.0070443 L349.771226,51.9512613 C353.96934,48.5593527 358.377358,45.9447565 362.995283,44.1074726 C367.613208,42.2701888 372.860849,41.6342059 378.738208,42.199524 C382.656447,43.3301602 386.224843,45.0261145 389.443396,47.287387 C392.66195,49.5486594 395.810535,52.3752499 398.889151,55.7671585 C400.568396,57.7457719 402.107704,59.8657147 403.507075,62.1269871 C404.906447,64.3882596 406.025943,66.7908615 406.865566,69.334793 L407.705189,69.334793 L408.964623,67.6388386 C414.002358,62.8336348 419.180031,58.593749 424.497642,54.9191813 C429.815252,51.2446137 436.112421,49.6899889 443.389151,50.255307 C449.966195,50.255307 455.913522,51.739267 461.231132,54.7071871 C466.548742,57.6751071 471.446541,61.561669 475.924528,66.3668729 C479.842767,71.7373949 482.221698,77.8145645 483.061321,84.5983817 C483.900943,91.382199 484.880503,98.0246867 486,104.525845 L486,123.605331 C485.720126,130.106489 484.740566,136.289656 483.061321,142.154831 C481.382075,148.020006 478.443396,153.355196 474.245283,158.1604 C471.446541,160.704331 468.227987,162.188291 464.589623,162.61228 C460.951258,163.036268 457.172956,163.248263 453.254717,163.248263 C451.715409,162.965604 450.386006,162.47095 449.266509,161.764303 C448.147013,161.057655 447.027516,160.280343 445.908019,159.432366 C442.829403,156.040457 440.870283,152.047898 440.03066,147.454688 C439.191038,142.861479 438.771226,138.162272 438.771226,133.357068 C439.051101,127.421228 440.03066,121.909376 441.709906,116.821514 C443.389151,111.733651 444.088836,106.08047 443.808962,99.8619705 C443.249214,97.6006981 442.409591,95.4100904 441.290094,93.2901475 C440.170597,91.1702047 438.771226,89.1209265 437.091981,87.1423132 L434.573113,86.7183246 C432.613994,87.8489608 431.214623,89.4742504 430.375,91.5941932 C429.535377,93.7141361 428.555818,95.6220847 427.436321,97.318039 C423.518082,108.624401 421.209119,120.460749 420.509434,132.827082 C419.809748,145.193416 414.702044,155.757798 405.186321,164.520228 C403.78695,165.650865 402.177673,166.428177 400.358491,166.852166 C398.539308,167.276154 396.650157,167.488149 394.691038,167.488149 C393.291667,167.205489 391.892296,166.710836 390.492925,166.004188 C389.093553,165.297541 387.694182,164.520228 386.294811,163.672251 C382.376572,159.715025 379.927673,155.19248 378.948113,150.104617 C377.968553,145.016754 377.478774,139.716897 377.478774,134.205045 C377.758648,127.138569 378.388365,120.284087 379.367925,113.641599 C380.347484,106.999112 380.697327,100.14463 380.417453,93.0781533 C380.417453,91.664858 380.207547,90.2515627 379.787736,88.8382675 C379.367925,87.4249722 378.59827,86.1530065 377.478774,85.0223703 L373.28066,84.5983817 C371.601415,85.4463589 369.92217,86.5063303 368.242925,87.778296 C366.563679,89.0502618 365.024371,90.3928923 363.625,91.8061875 C361.665881,94.9154371 360.126572,98.2366809 359.007075,101.769919 C357.887579,105.303157 357.467767,109.189719 357.747642,113.429605 L358.587264,121.909376 L358.587264,145.016754 C358.587264,149.539299 358.027516,153.779185 356.908019,157.736411 C355.788522,161.693638 353.549528,165.226876 350.191038,168.336126 C347.952044,170.03208 345.46816,171.233381 342.739387,171.940029 C340.010613,172.646676 337.106918,173 334.028302,173 Z" id="Path"></path>
                    <path d="M528.932219,163 C527.824616,162.720207 526.647787,162.300518 525.401733,161.740933 C524.155679,161.181347 523.117301,160.341969 522.286599,159.222798 C517.856185,149.709845 515.017951,139.602332 513.771897,128.900259 C512.525843,118.198187 511.210564,107.531088 509.82606,96.8989637 L508.995357,96.8989637 L507.749304,92.7020725 C508.303105,90.1839378 509.272258,87.8756477 510.656763,85.7772021 C512.041267,83.6787565 513.564222,81.6502591 515.225627,79.6917098 C516.610131,78.2927461 518.340761,77.5932642 520.417518,77.5932642 C522.494274,77.5932642 524.640256,77.5932642 526.855463,77.5932642 C528.516868,77.873057 530.109048,78.2227979 531.632002,78.642487 C533.154957,79.0621762 534.470236,79.9715026 535.57784,81.3704663 C539.177551,86.6865285 541.669659,92.492228 543.054163,98.7875648 C544.438667,105.082902 545.546271,111.588083 546.376973,118.303109 L546.376973,135.510363 C546.376973,140.406736 545.546271,144.813472 543.884865,148.73057 C542.22346,152.647668 539.731353,156.284974 536.408542,159.642487 C535.300939,160.481865 534.12411,161.251295 532.878056,161.950777 C531.632002,162.650259 530.316723,163 528.932219,163 Z M512.318168,72.1373057 C509.82606,71.5777202 507.541628,70.5284974 505.464872,68.9896373 C503.388115,67.4507772 501.242133,65.8419689 499.026927,64.1632124 C494.873414,59.4067358 491.550604,54.4404145 489.058496,49.2642487 C486.566388,44.0880829 485.597235,38.0725389 486.151037,31.2176166 C486.704839,27.8601036 487.466316,24.642487 488.435469,21.5647668 C489.404622,18.4870466 490.996802,15.6891192 493.212009,13.1709845 C497.088621,9.53367876 501.311359,6.59585492 505.880223,4.35751295 C510.449087,2.11917098 515.502528,1 521.040545,1 C524.363355,1.83937824 527.47849,2.95854922 530.385949,4.35751295 C533.293408,5.75647668 535.993191,7.85492228 538.485299,10.6528497 C541.254307,14.8497409 543.469514,19.3264249 545.130919,24.0829016 C546.792324,28.8393782 547.346126,34.0854922 546.792324,39.8212435 C547.069225,45.6968912 545.684721,50.8031088 542.638812,55.1398964 C539.592902,59.4766839 536.270092,63.7435233 532.670381,67.9404145 C529.901372,70.4585492 526.717012,71.7875648 523.117301,71.9274611 C519.51759,72.0673575 515.917879,72.1373057 512.318168,72.1373057 Z" id="Shape"></path>
                    <path d="M591.028302,173 C589.628931,172.434682 588.22956,171.798699 586.830189,171.092051 C585.430818,170.385404 584.171384,169.325432 583.051887,167.912137 C576.334906,158.301729 571.996855,147.878677 570.037736,136.64298 C568.078616,125.407282 566.679245,113.994923 565.839623,102.405902 L565.839623,77.3905759 L566.679245,67.6388386 L565.839623,67.2148501 C565.279874,66.649532 565,65.8722196 565,64.8829129 C565,63.8936062 565,62.9749643 565,62.1269871 C566.959119,59.5830557 568.918239,57.109789 570.877358,54.7071871 C572.836478,52.3045851 575.215409,50.3966365 578.014151,48.9833413 L585.150943,48.5593527 C587.110063,49.1246708 588.999214,50.0433127 590.818396,51.3152784 C592.637579,52.5872442 594.386792,54.0712042 596.066038,55.7671585 L599.004717,60.0070443 L599.84434,60.0070443 L606.771226,51.9512613 C610.96934,48.5593527 615.377358,45.9447565 619.995283,44.1074726 C624.613208,42.2701888 629.860849,41.6342059 635.738208,42.199524 C639.656447,43.3301602 643.224843,45.0261145 646.443396,47.287387 C649.66195,49.5486594 652.810535,52.3752499 655.889151,55.7671585 C657.568396,57.7457719 659.107704,59.8657147 660.507075,62.1269871 C661.906447,64.3882596 663.025943,66.7908615 663.865566,69.334793 L664.705189,69.334793 L665.964623,67.6388386 C671.002358,62.8336348 676.180031,58.593749 681.497642,54.9191813 C686.815252,51.2446137 693.112421,49.6899889 700.389151,50.255307 C706.966195,50.255307 712.913522,51.739267 718.231132,54.7071871 C723.548742,57.6751071 728.446541,61.561669 732.924528,66.3668729 C736.842767,71.7373949 739.221698,77.8145645 740.061321,84.5983817 C740.900943,91.382199 741.880503,98.0246867 743,104.525845 L743,123.605331 C742.720126,130.106489 741.740566,136.289656 740.061321,142.154831 C738.382075,148.020006 735.443396,153.355196 731.245283,158.1604 C728.446541,160.704331 725.227987,162.188291 721.589623,162.61228 C717.951258,163.036268 714.172956,163.248263 710.254717,163.248263 C708.715409,162.965604 707.386006,162.47095 706.266509,161.764303 C705.147013,161.057655 704.027516,160.280343 702.908019,159.432366 C699.829403,156.040457 697.870283,152.047898 697.03066,147.454688 C696.191038,142.861479 695.771226,138.162272 695.771226,133.357068 C696.051101,127.421228 697.03066,121.909376 698.709906,116.821514 C700.389151,111.733651 701.088836,106.08047 700.808962,99.8619705 C700.249214,97.6006981 699.409591,95.4100904 698.290094,93.2901475 C697.170597,91.1702047 695.771226,89.1209265 694.091981,87.1423132 L691.573113,86.7183246 C689.613994,87.8489608 688.214623,89.4742504 687.375,91.5941932 C686.535377,93.7141361 685.555818,95.6220847 684.436321,97.318039 C680.518082,108.624401 678.209119,120.460749 677.509434,132.827082 C676.809748,145.193416 671.702044,155.757798 662.186321,164.520228 C660.78695,165.650865 659.177673,166.428177 657.358491,166.852166 C655.539308,167.276154 653.650157,167.488149 651.691038,167.488149 C650.291667,167.205489 648.892296,166.710836 647.492925,166.004188 C646.093553,165.297541 644.694182,164.520228 643.294811,163.672251 C639.376572,159.715025 636.927673,155.19248 635.948113,150.104617 C634.968553,145.016754 634.478774,139.716897 634.478774,134.205045 C634.758648,127.138569 635.388365,120.284087 636.367925,113.641599 C637.347484,106.999112 637.697327,100.14463 637.417453,93.0781533 C637.417453,91.664858 637.207547,90.2515627 636.787736,88.8382675 C636.367925,87.4249722 635.59827,86.1530065 634.478774,85.0223703 L630.28066,84.5983817 C628.601415,85.4463589 626.92217,86.5063303 625.242925,87.778296 C623.563679,89.0502618 622.024371,90.3928923 620.625,91.8061875 C618.665881,94.9154371 617.126572,98.2366809 616.007075,101.769919 C614.887579,105.303157 614.467767,109.189719 614.747642,113.429605 L615.587264,121.909376 L615.587264,145.016754 C615.587264,149.539299 615.027516,153.779185 613.908019,157.736411 C612.788522,161.693638 610.549528,165.226876 607.191038,168.336126 C604.952044,170.03208 602.46816,171.233381 599.739387,171.940029 C597.010613,172.646676 594.106918,173 591.028302,173 Z" id="Path"></path>
                    <path d="M805.732596,181 C800.152679,180.721267 795.130754,179.3276 790.666821,176.819001 C786.202888,174.310402 781.948202,170.826236 777.902762,166.366504 C773.438829,159.398172 769.742134,152.116266 766.812678,144.520784 C763.883222,136.925303 762.278996,128.946563 762,120.584566 C762.278996,111.943834 763.813473,103.86057 766.603431,96.3347718 C769.393389,88.8089738 773.578327,81.8406423 779.158243,75.4297772 C784.04067,70.4125785 789.271842,66.3012629 794.851759,63.0958304 C800.431675,59.8903979 806.709081,58.5664149 813.683977,59.1238814 C822.611843,59.9600812 830.84222,62.5383639 838.375108,66.8587295 C845.907995,71.179095 852.882891,76.6840769 859.299795,83.3736752 C865.716699,90.62074 870.668875,98.5646379 874.156322,107.205369 C877.64377,115.8461 879.247996,125.044298 878.969,134.799962 C878.411009,140.513994 876.876532,145.740242 874.365569,150.478708 C871.854607,155.217173 868.506657,159.537539 864.32172,163.439805 C857.904816,168.17827 850.999669,171.941169 843.606279,174.728502 C836.21289,177.515834 828.470756,179.606334 820.379877,181 L805.732596,181 Z M819.542889,150.478708 C821.216864,148.527575 822.472345,146.506759 823.309333,144.416259 C824.14632,142.32576 824.84381,139.956527 825.401802,137.308561 L825.401802,123.511265 C824.84381,118.215333 824.006823,112.989084 822.890839,107.832519 C821.774856,102.675954 819.821885,97.8678048 817.031927,93.4080726 L816.194939,93.4080726 C816.194939,94.5230056 816.12519,95.4985721 815.985693,96.3347718 C815.846195,97.1709716 815.357952,97.8678048 814.520964,98.4252713 L811.173015,99.2614711 C809.49904,104.836136 808.034311,110.480485 806.77883,116.194517 C805.523349,121.908549 804.895608,127.83163 804.895608,133.963762 C805.174604,137.029828 805.941843,139.921686 807.197324,142.639335 C808.452805,145.356984 810.057031,147.970109 812.010002,150.478708 C812.846989,151.036174 813.823475,151.314908 814.939458,151.314908 C816.055441,151.314908 817.171425,151.314908 818.287408,151.314908 L819.542889,150.478708 Z" id="Shape"></path>
                    <path d="M926.111111,173 C923.592593,172.441029 921.144033,171.742314 918.765432,170.903857 C916.386831,170.0654 914.218107,168.807714 912.259259,167.130799 C906.102881,156.789827 901.660494,145.924818 898.932099,134.535774 C896.203704,123.14673 894.699588,111.443264 894.419753,99.4253773 L894.419753,64.2101733 L894,62.5332588 C894.279835,60.5768586 894.839506,58.8999441 895.679012,57.5025154 C896.518519,56.1050866 897.63786,54.7076579 899.037037,53.3102292 C901.415638,51.6333147 903.864198,50.235886 906.382716,49.117943 C908.901235,48 911.699588,47.7205143 914.777778,48.2794857 C917.016461,48.8384572 919.045267,50.0961431 920.864198,52.0525433 C922.683128,54.0089435 924.432099,55.8256009 926.111111,57.5025154 L930.308642,65.8870878 L931.567901,65.8870878 C936.045267,62.5332588 941.012346,60.0178871 946.469136,58.3409726 C951.925926,56.6640581 957.452675,55.4063723 963.049383,54.567915 L983.197531,54.567915 C989.353909,55.4063723 995.020576,57.2230296 1000.19753,60.0178871 C1005.37449,62.8127446 1010.2716,66.5858021 1014.88889,71.3370598 C1020.76543,78.0447177 1024.54321,85.5209614 1026.22222,93.7657909 C1027.90123,102.01062 1029.16049,110.465064 1030,119.129122 L1030,135.05981 C1028.88066,140.789268 1026.78189,146.099497 1023.7037,150.990497 C1020.62551,155.881498 1016.70782,160.423141 1011.95062,164.615428 C1009.01235,166.851314 1005.93416,168.737842 1002.71605,170.275014 C999.497942,171.812186 996.069959,172.580771 992.432099,172.580771 C990.193416,172.301286 988.09465,171.392957 986.135802,169.855785 C984.176955,168.318614 982.358025,166.851314 980.679012,165.453885 C978.440329,162.938513 976.761317,160.143656 975.641975,157.069312 C974.522634,153.994969 974.102881,150.64114 974.382716,147.007826 C974.942387,139.601453 976.131687,132.404695 977.950617,125.417552 C979.769547,118.430408 980.679012,111.163779 980.679012,103.617663 C980.119342,100.54332 978.930041,97.8183343 977.111111,95.4427054 C975.292181,93.0670766 973.123457,90.7613192 970.604938,88.5254332 C968.646091,87.1280045 966.407407,86.2895472 963.888889,86.0100615 C961.37037,85.7305757 958.851852,85.7305757 956.333333,86.0100615 L946.679012,90.6215763 C944.440329,94.254891 942.901235,98.2375629 942.061728,102.569592 C941.222222,106.901621 940.942387,111.443264 941.222222,116.194522 C942.061728,123.461151 942.971193,130.692845 943.950617,137.889603 C944.930041,145.086361 945.419753,152.457798 945.419753,160.003913 C945.139918,161.960313 944.440329,163.846842 943.320988,165.663499 C942.201646,167.480157 940.802469,169.0872 939.123457,170.484628 C937.164609,171.602571 935.065844,172.301286 932.82716,172.580771 C930.588477,172.860257 928.349794,173 926.111111,173 Z" id="Path"></path>
                    <path d="M1090.7326,181 C1085.15268,180.721267 1080.13075,179.3276 1075.66682,176.819001 C1071.20289,174.310402 1066.9482,170.826236 1062.90276,166.366504 C1058.43883,159.398172 1054.74213,152.116266 1051.81268,144.520784 C1048.88322,136.925303 1047.279,128.946563 1047,120.584566 C1047.279,111.943834 1048.81347,103.86057 1051.60343,96.3347718 C1054.39339,88.8089738 1058.57833,81.8406423 1064.15824,75.4297772 C1069.04067,70.4125785 1074.27184,66.3012629 1079.85176,63.0958304 C1085.43168,59.8903979 1091.70908,58.5664149 1098.68398,59.1238814 C1107.61184,59.9600812 1115.84222,62.5383639 1123.37511,66.8587295 C1130.90799,71.179095 1137.88289,76.6840769 1144.29979,83.3736752 C1150.7167,90.62074 1155.66887,98.5646379 1159.15632,107.205369 C1162.64377,115.8461 1164.248,125.044298 1163.969,134.799962 C1163.41101,140.513994 1161.87653,145.740242 1159.36557,150.478708 C1156.85461,155.217173 1153.50666,159.537539 1149.32172,163.439805 C1142.90482,168.17827 1135.99967,171.941169 1128.60628,174.728502 C1121.21289,177.515834 1113.47076,179.606334 1105.37988,181 L1090.7326,181 Z M1104.54289,150.478708 C1106.21686,148.527575 1107.47235,146.506759 1108.30933,144.416259 C1109.14632,142.32576 1109.84381,139.956527 1110.4018,137.308561 L1110.4018,123.511265 C1109.84381,118.215333 1109.00682,112.989084 1107.89084,107.832519 C1106.77486,102.675954 1104.82189,97.8678048 1102.03193,93.4080726 L1101.19494,93.4080726 C1101.19494,94.5230056 1101.12519,95.4985721 1100.98569,96.3347718 C1100.84619,97.1709716 1100.35795,97.8678048 1099.52096,98.4252713 L1096.17301,99.2614711 C1094.49904,104.836136 1093.03431,110.480485 1091.77883,116.194517 C1090.52335,121.908549 1089.89561,127.83163 1089.89561,133.963762 C1090.1746,137.029828 1090.94184,139.921686 1092.19732,142.639335 C1093.45281,145.356984 1095.05703,147.970109 1097.01,150.478708 C1097.84699,151.036174 1098.82347,151.314908 1099.93946,151.314908 C1101.05544,151.314908 1102.17142,151.314908 1103.28741,151.314908 L1104.54289,150.478708 Z" id="Shape"></path>
                </g>
            </g>
        </g>
    </g>
</svg>