<?xml version="1.0" encoding="UTF-8"?>
<svg width="1419px" height="342px" viewBox="0 0 1419 342" version="1.1" xmlns="http://www.w3.org/2000/svg" xmlns:xlink="http://www.w3.org/1999/xlink">
    <title>logo-full-design-system</title>
    <defs>
        <path d="M458.417753,28.9118932 L411.431439,253.632115 C409.106128,264.75332 399.301157,272.720222 387.939455,272.720222 L335.465923,272.720222 L335.465923,272.720222 L307.174386,272.720222 C298.33783,272.720222 291.174386,265.556778 291.174386,256.720222 C291.174386,255.619948 291.287879,254.52261 291.513063,253.445626 L297.416228,225.212712 C298.966414,217.798678 305.502909,212.48744 313.077272,212.487308 L335.058756,212.486925 C342.633082,212.486793 349.169554,207.175606 350.719779,199.761619 L375.864293,79.507381 C377.672857,70.8578827 372.127184,62.3799486 363.477686,60.571385 C362.400671,60.346187 361.303298,60.232687 360.202992,60.232687 L297.928871,60.232687 C290.354403,60.232687 283.817756,65.5439549 282.267548,72.9580915 L238.368716,282.911893 C236.043405,294.033098 226.238434,302 214.876732,302 L24,302 C10.745166,302 4.4408921e-14,291.254834 4.26325641e-14,278 C4.26325641e-14,276.34959 0.170239604,274.703582 0.508016153,273.088107 L53.6163821,19.0881068 C55.9416932,7.96690192 65.7466641,5.63982445e-15 77.108366,0 L434.925769,0 C448.180603,-2.7094705e-14 458.925769,10.745166 458.925769,24 C458.925769,25.6504099 458.75553,27.2964181 458.417753,28.9118932 Z M192.334543,60.1711748 L131.028434,60.1711748 C123.455624,60.1711748 116.91993,65.4801705 115.368016,72.8922562 L83.9228643,223.077202 C82.1119676,231.726212 87.6553537,240.205642 96.3043637,242.016539 C97.3827298,242.242323 98.4815329,242.356121 99.5832823,242.356121 L160.889391,242.356121 C168.462201,242.356121 174.997895,237.047125 176.549809,229.635039 L207.994961,79.4500934 C209.805857,70.8010834 204.262471,62.3216535 195.613461,60.5107568 C194.535095,60.2849726 193.436292,60.1711748 192.334543,60.1711748 Z" id="path-1"></path>
    </defs>
    <g id="Page-1" stroke="none" stroke-width="1" fill="none" fill-rule="evenodd">
        <g id="Artboard" transform="translate(-148.000000, -740.000000)">
            <g id="logo-full-design-system" transform="translate(168.537115, 760.000000)">
                <g id="logo-copy">
                    <mask id="mask-2" fill="white">
                        <use xlink:href="#path-1"></use>
                    </mask>
                    <use id="Combined-Shape" fill="#FF4296" xlink:href="#path-1"></use>
                    <rect id="Rectangle" fill="#FF4296" mask="url(#mask-2)" x="-20.5371154" y="-20" width="502" height="342"></rect>
                    <path d="M78.4628846,168.678517 C200.039012,130.57298 300.531192,114.38887 379.939426,120.126186 C497.861483,120.126186 548.399494,190.178517 652.250154,190.178517 C706.575322,190.178517 779.979566,183.01185 872.462885,168.678517 L872.462885,329.678517 L78.4628846,329.678517 L78.4628846,168.678517 Z" id="Rectangle" fill="#FFD238" mask="url(#mask-2)"></path>
                    <path d="M-133.537115,199.678517 C-35.2350075,161.57298 46.0193752,145.38887 110.226033,151.126186 C205.57359,151.126186 246.436818,221.178517 330.406747,221.178517 C374.332135,221.178517 433.684181,214.01185 508.462885,199.678517 L508.462885,360.678517 L-133.537115,360.678517 L-133.537115,199.678517 Z" id="Rectangle" fill="#AE70FA" mask="url(#mask-2)"></path>
                    <path d="M434.925769,-10 C444.31461,-10 452.81461,-6.19442037 458.9674,-0.0416305603 C465.12019,6.11115925 468.925769,14.6111593 468.925769,24 C468.925769,26.0782939 468.735213,28.1516609 468.35679,30.1941009 L468.20608,30.9585154 L421.219766,255.678737 C419.57267,263.556257 415.276529,270.316628 409.380193,275.107619 C403.617865,279.789724 396.327252,282.590949 388.487307,282.715859 L387.939455,282.720222 L307.174386,282.720222 C299.994684,282.720222 293.494684,279.810072 288.78961,275.104998 C284.084535,270.399923 281.174386,263.899923 281.174386,256.720222 C281.174386,255.155771 281.315587,253.59497 281.596028,252.056786 L281.724737,251.399004 L287.627902,223.16609 C288.887428,217.142188 292.172642,211.972546 296.681517,208.308853 C301.061567,204.749836 306.596353,202.611944 312.550649,202.492586 L313.077098,202.487308 L335.058582,202.486925 C336.478768,202.4869 337.801655,201.988964 338.842163,201.143503 C339.813303,200.354407 340.53846,199.262578 340.867154,197.990286 L340.931466,197.714935 L366.07598,77.4606972 C366.415085,75.8389163 366.064731,74.2332195 365.224156,72.9481915 C364.38358,71.6631636 363.052783,70.6988044 361.431002,70.3596987 C361.128091,70.2963618 360.820887,70.2565862 360.512144,70.2406569 L360.202992,70.232687 L297.928871,70.232687 C296.508658,70.232687 295.185741,70.7306184 294.145211,71.5760874 C293.17405,72.3651918 292.44888,73.4570401 292.120186,74.7293567 L292.055875,75.0047137 L248.157043,284.958515 C246.509948,292.836035 242.213806,299.596407 236.31747,304.387398 C230.555142,309.069503 223.264529,311.870728 215.424584,311.995638 L214.876732,312 L24,312 C14.6111593,312 6.11115925,308.19442 -0.0416305603,302.041631 C-6.19442037,295.888841 -10,287.388841 -10,278 C-10,275.921706 -9.80944374,273.848339 -9.43102027,271.805899 L-9.28031045,271.041485 L43.8280555,17.0414846 C45.4751509,9.1639645 49.7712924,2.40359335 55.6676282,-2.38739778 C61.4299563,-7.06950274 68.720569,-9.87072771 76.5605141,-9.99563767 L77.108366,-10 L434.925769,-10 Z M192.334543,70.1711748 L131.028434,70.1711748 L130.745804,70.1777665 C129.43343,70.2390814 128.216497,70.7252371 127.245417,71.514053 C126.204974,72.3592129 125.446761,73.5518143 125.155777,74.9415803 L125.155777,74.9415803 L93.7106256,225.126526 L93.6578227,225.41248 C93.4139462,226.936023 93.7704285,228.42961 94.5612323,229.639262 C95.4014613,230.924516 96.7319985,231.889234 98.3536879,232.228778 C98.7580751,232.313447 99.1701263,232.356121 99.5832823,232.356121 L99.5832823,232.356121 L160.889391,232.356121 L161.17202,232.349529 C162.484395,232.288214 163.701328,231.802058 164.672408,231.013243 C165.712851,230.168083 166.471064,228.975481 166.762048,227.585715 L166.762048,227.585715 L198.207199,77.4007693 L198.260002,77.1148159 C198.503879,75.5912724 198.147396,74.0976855 197.356593,72.888034 C196.516364,71.6027793 195.185826,70.6380612 193.564137,70.2985181 C193.15975,70.213849 192.747699,70.1711748 192.334543,70.1711748 L192.334543,70.1711748 Z" id="Combined-Shape" stroke="#710277" stroke-width="20"></path>
                </g>
                <g id="Nomimono" transform="translate(535.462885, 11.000000)" fill="#710277" fill-rule="nonzero">
                    <path d="M19.3527919,126 C17.5981387,125.794319 15.998308,125.382958 14.5532995,124.765916 C13.108291,124.148874 11.6632826,123.428991 10.2182741,122.606268 C6.50253807,118.286974 4.07698816,113.376347 2.94162437,107.874388 C1.80626058,102.372429 0.82571912,96.84476 0,91.291381 L0,80.1846229 C1.85786802,67.2267385 4.33502538,54.4488247 7.43147208,41.8508815 C10.5279188,29.2529383 13.9856176,16.7835455 17.8045685,4.44270323 L21.2106599,3.82566112 L23.0685279,4.13418217 C24.1006768,3.51714006 25.1844332,3.05435847 26.319797,2.74583741 C27.4551607,2.43731636 28.7453469,2.38589618 30.1903553,2.59157689 C32.0482234,2.59157689 33.751269,3.0029383 35.2994924,3.82566112 C36.8477157,4.64838394 38.2411168,5.77962782 39.4796954,7.21939275 C44.4340102,19.4573947 49.5947547,31.6439765 54.9619289,43.7791381 C60.3291032,55.9142997 67.5541455,67.1238981 76.6370558,77.4079334 L77.5659898,77.7164545 C79.4238579,64.9642507 80.9720812,52.1349167 82.2106599,39.2284525 C83.4492386,26.3219882 86.7521151,14.006856 92.1192893,2.28305583 C93.1514382,1.2546523 94.3642132,0.58619001 95.7576142,0.277668952 C97.1510152,-0.0308521058 98.6734349,-0.0822722821 100.324873,0.123408423 C102.182741,0.123408423 103.834179,0.534769833 105.279188,1.35749265 C106.724196,2.18021548 108.06599,3.208619 109.304569,4.44270323 C113.846024,8.55631734 116.94247,13.2612635 118.593909,18.5575416 C120.245347,23.8538198 121.380711,29.3814887 122,35.1405485 L122,46.8643487 C121.58714,57.7654261 120.245347,68.6150833 117.974619,79.4133203 C115.703892,90.2115573 110.543147,99.7757101 102.492386,108.105779 C99.3959391,110.779628 96.1704738,112.990695 92.8159898,114.738981 C89.4615059,116.487267 85.6167513,117.25857 81.2817259,117.052889 C77.9788494,116.435847 74.8824027,115.253183 71.9923858,113.504897 C69.1023689,111.756611 66.4187817,109.442703 63.9416244,106.563173 C57.5423012,100.084231 52.4331641,92.9882468 48.6142132,85.2752204 C44.7952623,77.5621939 41.5439932,69.5920666 38.8604061,61.3648384 L38.2411168,61.3648384 L38.2411168,62.2904016 C38.8604061,66.6096964 39.5313029,70.877571 40.2538071,75.0940255 C40.9763113,79.3104799 41.4407783,83.5783546 41.6472081,87.8976494 L41.6472081,106.563173 C41.0279188,109.237023 40.3054146,111.808031 39.4796954,114.2762 C38.6539763,116.744368 37.2089679,119.006856 35.1446701,121.063663 C32.8739425,122.709109 30.4483926,123.943193 27.8680203,124.765916 C25.2876481,125.588639 22.4492386,126 19.3527919,126 Z" id="Path"></path>
                    <path d="M164.145327,133 C160.04385,132.794377 156.35252,131.766263 153.071339,129.915657 C149.790157,128.06505 146.662781,125.494764 143.68921,122.204798 C140.408028,117.064225 137.690799,111.692327 135.537524,106.089103 C133.384249,100.485879 132.205074,94.5999238 132,88.4312369 C132.205074,82.0569271 133.33298,76.093863 135.383719,70.5420448 C137.434457,64.9902266 140.510565,59.8496541 144.612042,55.1203275 C148.200835,51.4191153 152.045969,48.3861776 156.147447,46.0215142 C160.248924,43.6568509 164.863085,42.6801422 169.989932,43.091388 C176.552295,43.7082566 182.601974,45.6102685 188.138968,48.7974234 C193.675962,51.9845783 198.802809,56.0456305 203.519507,60.9805801 C208.236206,66.3267754 211.876267,72.187028 214.43969,78.5613378 C217.003113,84.9356476 218.182288,91.7212033 217.977214,98.9180047 C217.567066,103.133274 216.43916,106.988703 214.593495,110.484293 C212.747831,113.979882 210.286944,117.167037 207.210837,120.045757 C202.494138,123.541347 197.41856,126.317256 191.984103,128.373485 C186.549646,130.429714 180.858846,131.971886 174.911704,133 L164.145327,133 Z M174.296483,110.484293 C175.526926,109.044932 176.449758,107.554166 177.06498,106.011995 C177.680201,104.469823 178.192886,102.722028 178.603034,100.768611 L178.603034,90.5902773 C178.192886,86.6834423 177.577664,82.8280129 176.757369,79.0239893 C175.937074,75.2199657 174.501557,71.6729707 172.450818,68.3830044 L171.835596,68.3830044 C171.835596,69.205496 171.784328,69.9251761 171.681791,70.5420448 C171.579254,71.1589135 171.220375,71.6729707 170.605153,72.0842165 L168.144267,72.7010852 C166.913824,76.8135432 165.837186,80.9774069 164.914354,85.1926763 C163.991521,89.4079457 163.530105,93.7774323 163.530105,98.301136 C163.735179,100.562988 164.299132,102.696325 165.221965,104.701149 C166.144797,106.705972 167.323972,108.633687 168.759489,110.484293 C169.37471,110.895538 170.092469,111.101161 170.912764,111.101161 C171.73306,111.101161 172.553355,111.101161 173.37365,111.101161 L174.296483,110.484293 Z" id="Shape"></path>
                    <path d="M245.15566,127 C244.125786,126.585721 243.095912,126.119657 242.066038,125.601809 C241.036164,125.08396 240.109277,124.307187 239.285377,123.27149 C234.341981,116.228748 231.149371,108.590481 229.707547,100.356687 C228.265723,92.1228939 227.235849,83.7596383 226.617925,75.2669205 L226.617925,56.9350785 L227.235849,49.7887673 L226.617925,49.4780581 C226.205975,49.0637792 226,48.4941456 226,47.7691575 C226,47.0441694 226,46.3709662 226,45.7495478 C227.441824,43.8852927 228.883648,42.0728225 230.325472,40.3121371 C231.767296,38.5514517 233.518082,37.1532604 235.57783,36.1175631 L240.830189,35.8068539 C242.272013,36.2211328 243.662343,36.894336 245.001179,37.8264636 C246.340016,38.7585911 247.627358,39.8460733 248.863208,41.08891 L251.025943,44.1960019 L251.643868,44.1960019 L256.741745,38.2925274 C259.831368,35.8068539 263.075472,33.8908139 266.474057,32.5444074 C269.872642,31.198001 273.73467,30.7319372 278.060142,31.1462161 C280.943789,31.9747739 283.569969,33.2176107 285.938679,34.8747263 C288.30739,36.531842 290.624607,38.6032366 292.89033,41.08891 C294.126179,42.5388862 295.259041,44.0924322 296.288915,45.7495478 C297.318789,47.4066635 298.142689,49.1673489 298.760613,51.031604 L299.378538,51.031604 L300.305425,49.7887673 C304.012972,46.2673965 307.823506,43.1603046 311.737028,40.4674917 C315.65055,37.7746787 320.284984,36.6354117 325.64033,37.0496906 C330.480739,37.0496906 334.857704,38.1371728 338.771226,40.3121371 C342.684748,42.4871014 346.289308,45.3352689 349.584906,48.8566397 C352.468553,52.7922894 354.21934,57.2457877 354.837264,62.2171347 C355.455189,67.1884817 356.176101,72.0562589 357,76.8204664 L357,90.8023798 C356.794025,95.5665873 356.073113,100.097763 354.837264,104.395907 C353.601415,108.69405 351.438679,112.603808 348.349057,116.125178 C346.289308,117.989434 343.920597,119.076916 341.242925,119.387625 C338.565252,119.698334 335.784591,119.853689 332.900943,119.853689 C331.768082,119.646549 330.789701,119.284055 329.965802,118.766207 C329.141903,118.248358 328.318003,117.678724 327.494104,117.057306 C325.228381,114.571633 323.786557,111.645788 323.168632,108.279772 C322.550708,104.913755 322.241745,101.470062 322.241745,97.9486911 C322.44772,93.5987625 323.168632,89.5595431 324.404481,85.8310328 C325.64033,82.1025226 326.155267,77.9597335 325.949292,73.4026654 C325.537343,71.7455497 324.919418,70.1402189 324.095519,68.586673 C323.271619,67.0331271 322.241745,65.531366 321.005896,64.0813898 L319.152123,63.7706806 C317.710299,64.5992385 316.680425,65.7902903 316.0625,67.3438363 C315.444575,68.8973822 314.723664,70.2955735 313.899764,71.5384103 C311.016116,79.8239886 309.316824,88.4979534 308.801887,97.5603046 C308.28695,106.622656 304.527909,114.364493 297.524764,120.785816 C296.49489,121.614374 295.310535,122.184008 293.971698,122.494717 C292.632862,122.805426 291.242531,122.960781 289.800708,122.960781 C288.770833,122.753641 287.740959,122.391147 286.711085,121.873298 C285.681211,121.35545 284.651336,120.785816 283.621462,120.164398 C280.737814,117.264446 278.935535,113.950214 278.214623,110.221704 C277.493711,106.493194 277.133255,102.609329 277.133255,98.5701095 C277.33923,93.391623 277.802673,88.3684912 278.523585,83.5007139 C279.244497,78.6329367 279.501965,73.6098049 279.295991,68.4313184 C279.295991,67.3956211 279.141509,66.3599238 278.832547,65.3242266 C278.523585,64.2885293 277.957154,63.3564017 277.133255,62.5278439 L274.043632,62.2171347 C272.807783,62.8385531 271.571934,63.615326 270.336085,64.5474536 C269.100236,65.4795812 267.967374,66.4634936 266.9375,67.4991909 C265.495676,69.7777249 264.362814,72.2116135 263.538915,74.8008567 C262.715016,77.3901 262.406053,80.2382675 262.612028,83.3453594 L263.229953,89.5595431 L263.229953,106.493194 C263.229953,109.807425 262.818003,112.914517 261.994104,115.814469 C261.170204,118.714422 259.522406,121.303665 257.050708,123.582199 C255.402909,124.825036 253.574882,125.705378 251.566627,126.223227 C249.558373,126.741076 247.421384,127 245.15566,127 Z" id="Path"></path>
                    <path d="M388.671309,120 C387.854225,119.794473 386.986072,119.486183 386.066852,119.07513 C385.147632,118.664076 384.381616,118.047496 383.768802,117.225389 C380.500464,110.237478 378.406685,102.812824 377.487465,94.9514249 C376.568245,87.0900259 375.597957,79.2543178 374.576602,71.4443005 L373.963788,71.4443005 L373.044568,68.361399 C373.45311,66.511658 374.168059,64.8160622 375.189415,63.2746114 C376.210771,61.7331606 377.334262,60.2430915 378.559889,58.8044041 C379.581244,57.7767703 380.857939,57.2629534 382.389972,57.2629534 C383.922006,57.2629534 385.505107,57.2629534 387.139276,57.2629534 C388.364903,57.4684801 389.539461,57.7253886 390.662953,58.0336788 C391.786444,58.3419689 392.756732,59.0099309 393.573816,60.0375648 C396.229341,63.9425734 398.067781,68.2072539 399.089136,72.8316062 C400.110492,77.4559585 400.927577,82.234456 401.54039,87.1670984 L401.54039,99.8069948 C401.54039,103.403713 400.927577,106.64076 399.70195,109.518135 C398.476323,112.395509 396.637883,115.067358 394.18663,117.533679 C393.369545,118.150259 392.501393,118.715458 391.582173,119.229275 C390.662953,119.743092 389.692665,120 388.671309,120 Z M376.415042,53.2551813 C374.576602,52.8441278 372.891365,52.0734024 371.359331,50.9430052 C369.827298,49.8126079 368.244197,48.630829 366.610028,47.3976684 C363.545961,43.9037133 361.094708,40.2556131 359.256267,36.4533679 C357.417827,32.6511226 356.702878,28.2322971 357.111421,23.1968912 C357.519963,20.7305699 358.081708,18.3670121 358.796657,16.1062176 C359.511606,13.8454231 360.686165,11.7901554 362.320334,9.94041451 C365.18013,7.26856649 368.295265,5.11053541 371.665738,3.46632124 C375.036212,1.82210708 378.76416,1 382.849582,1 C385.300836,1.61658031 387.598886,2.43868739 389.743733,3.46632124 C391.888579,4.49395509 393.880223,6.03540587 395.718663,8.09067358 C397.761374,11.1735751 399.395543,14.4620035 400.62117,17.9559585 C401.846797,21.4499136 402.255339,25.3035406 401.846797,29.5168394 C402.051068,33.8329016 401.029712,37.5837651 398.78273,40.7694301 C396.535747,43.955095 394.084494,47.0893782 391.428969,50.1722798 C389.386258,52.0220207 387.03714,52.9982729 384.381616,53.1010363 C381.726091,53.2037997 379.070566,53.2551813 376.415042,53.2551813 Z" id="Shape"></path>
                    <path d="M434.15566,127 C433.125786,126.585721 432.095912,126.119657 431.066038,125.601809 C430.036164,125.08396 429.109277,124.307187 428.285377,123.27149 C423.341981,116.228748 420.149371,108.590481 418.707547,100.356687 C417.265723,92.1228939 416.235849,83.7596383 415.617925,75.2669205 L415.617925,56.9350785 L416.235849,49.7887673 L415.617925,49.4780581 C415.205975,49.0637792 415,48.4941456 415,47.7691575 C415,47.0441694 415,46.3709662 415,45.7495478 C416.441824,43.8852927 417.883648,42.0728225 419.325472,40.3121371 C420.767296,38.5514517 422.518082,37.1532604 424.57783,36.1175631 L429.830189,35.8068539 C431.272013,36.2211328 432.662343,36.894336 434.001179,37.8264636 C435.340016,38.7585911 436.627358,39.8460733 437.863208,41.08891 L440.025943,44.1960019 L440.643868,44.1960019 L445.741745,38.2925274 C448.831368,35.8068539 452.075472,33.8908139 455.474057,32.5444074 C458.872642,31.198001 462.73467,30.7319372 467.060142,31.1462161 C469.943789,31.9747739 472.569969,33.2176107 474.938679,34.8747263 C477.30739,36.531842 479.624607,38.6032366 481.89033,41.08891 C483.126179,42.5388862 484.259041,44.0924322 485.288915,45.7495478 C486.318789,47.4066635 487.142689,49.1673489 487.760613,51.031604 L488.378538,51.031604 L489.305425,49.7887673 C493.012972,46.2673965 496.823506,43.1603046 500.737028,40.4674917 C504.65055,37.7746787 509.284984,36.6354117 514.64033,37.0496906 C519.480739,37.0496906 523.857704,38.1371728 527.771226,40.3121371 C531.684748,42.4871014 535.289308,45.3352689 538.584906,48.8566397 C541.468553,52.7922894 543.21934,57.2457877 543.837264,62.2171347 C544.455189,67.1884817 545.176101,72.0562589 546,76.8204664 L546,90.8023798 C545.794025,95.5665873 545.073113,100.097763 543.837264,104.395907 C542.601415,108.69405 540.438679,112.603808 537.349057,116.125178 C535.289308,117.989434 532.920597,119.076916 530.242925,119.387625 C527.565252,119.698334 524.784591,119.853689 521.900943,119.853689 C520.768082,119.646549 519.789701,119.284055 518.965802,118.766207 C518.141903,118.248358 517.318003,117.678724 516.494104,117.057306 C514.228381,114.571633 512.786557,111.645788 512.168632,108.279772 C511.550708,104.913755 511.241745,101.470062 511.241745,97.9486911 C511.44772,93.5987625 512.168632,89.5595431 513.404481,85.8310328 C514.64033,82.1025226 515.155267,77.9597335 514.949292,73.4026654 C514.537343,71.7455497 513.919418,70.1402189 513.095519,68.586673 C512.271619,67.0331271 511.241745,65.531366 510.005896,64.0813898 L508.152123,63.7706806 C506.710299,64.5992385 505.680425,65.7902903 505.0625,67.3438363 C504.444575,68.8973822 503.723664,70.2955735 502.899764,71.5384103 C500.016116,79.8239886 498.316824,88.4979534 497.801887,97.5603046 C497.28695,106.622656 493.527909,114.364493 486.524764,120.785816 C485.49489,121.614374 484.310535,122.184008 482.971698,122.494717 C481.632862,122.805426 480.242531,122.960781 478.800708,122.960781 C477.770833,122.753641 476.740959,122.391147 475.711085,121.873298 C474.681211,121.35545 473.651336,120.785816 472.621462,120.164398 C469.737814,117.264446 467.935535,113.950214 467.214623,110.221704 C466.493711,106.493194 466.133255,102.609329 466.133255,98.5701095 C466.33923,93.391623 466.802673,88.3684912 467.523585,83.5007139 C468.244497,78.6329367 468.501965,73.6098049 468.295991,68.4313184 C468.295991,67.3956211 468.141509,66.3599238 467.832547,65.3242266 C467.523585,64.2885293 466.957154,63.3564017 466.133255,62.5278439 L463.043632,62.2171347 C461.807783,62.8385531 460.571934,63.615326 459.336085,64.5474536 C458.100236,65.4795812 456.967374,66.4634936 455.9375,67.4991909 C454.495676,69.7777249 453.362814,72.2116135 452.538915,74.8008567 C451.715016,77.3901 451.406053,80.2382675 451.612028,83.3453594 L452.229953,89.5595431 L452.229953,106.493194 C452.229953,109.807425 451.818003,112.914517 450.994104,115.814469 C450.170204,118.714422 448.522406,121.303665 446.050708,123.582199 C444.402909,124.825036 442.574882,125.705378 440.566627,126.223227 C438.558373,126.741076 436.421384,127 434.15566,127 Z" id="Path"></path>
                    <path d="M592.145327,133 C588.04385,132.794377 584.35252,131.766263 581.071339,129.915657 C577.790157,128.06505 574.662781,125.494764 571.68921,122.204798 C568.408028,117.064225 565.690799,111.692327 563.537524,106.089103 C561.384249,100.485879 560.205074,94.5999238 560,88.4312369 C560.205074,82.0569271 561.33298,76.093863 563.383719,70.5420448 C565.434457,64.9902266 568.510565,59.8496541 572.612042,55.1203275 C576.200835,51.4191153 580.045969,48.3861776 584.147447,46.0215142 C588.248924,43.6568509 592.863085,42.6801422 597.989932,43.091388 C604.552295,43.7082566 610.601974,45.6102685 616.138968,48.7974234 C621.675962,51.9845783 626.802809,56.0456305 631.519507,60.9805801 C636.236206,66.3267754 639.876267,72.187028 642.43969,78.5613378 C645.003113,84.9356476 646.182288,91.7212033 645.977214,98.9180047 C645.567066,103.133274 644.43916,106.988703 642.593495,110.484293 C640.747831,113.979882 638.286944,117.167037 635.210837,120.045757 C630.494138,123.541347 625.41856,126.317256 619.984103,128.373485 C614.549646,130.429714 608.858846,131.971886 602.911704,133 L592.145327,133 Z M602.296483,110.484293 C603.526926,109.044932 604.449758,107.554166 605.06498,106.011995 C605.680201,104.469823 606.192886,102.722028 606.603034,100.768611 L606.603034,90.5902773 C606.192886,86.6834423 605.577664,82.8280129 604.757369,79.0239893 C603.937074,75.2199657 602.501557,71.6729707 600.450818,68.3830044 L599.835596,68.3830044 C599.835596,69.205496 599.784328,69.9251761 599.681791,70.5420448 C599.579254,71.1589135 599.220375,71.6729707 598.605153,72.0842165 L596.144267,72.7010852 C594.913824,76.8135432 593.837186,80.9774069 592.914354,85.1926763 C591.991521,89.4079457 591.530105,93.7774323 591.530105,98.301136 C591.735179,100.562988 592.299132,102.696325 593.221965,104.701149 C594.144797,106.705972 595.323972,108.633687 596.759489,110.484293 C597.37471,110.895538 598.092469,111.101161 598.912764,111.101161 C599.73306,111.101161 600.553355,111.101161 601.37365,111.101161 L602.296483,110.484293 Z" id="Shape"></path>
                    <path d="M680.611111,127 C678.759259,126.588597 676.958848,126.074343 675.209877,125.457239 C673.460905,124.840134 671.866255,123.914477 670.425926,122.680268 C665.899177,115.069312 662.632716,107.072666 660.626543,98.6903298 C658.62037,90.3079933 657.514403,81.6942426 657.308642,72.8490777 L657.308642,46.9306875 L657,45.6964785 C657.205761,44.2565679 657.617284,43.0223589 658.234568,41.9938513 C658.851852,40.9653438 659.674897,39.9368362 660.703704,38.9083287 C662.452675,37.6741196 664.253086,36.6456121 666.104938,35.822806 C667.95679,35 670.014403,34.7942985 672.277778,35.2057015 C673.923868,35.6171045 675.415638,36.5427613 676.753086,37.9826719 C678.090535,39.4225824 679.376543,40.7596423 680.611111,41.9938513 L683.697531,48.1648966 L684.623457,48.1648966 C687.915638,45.6964785 691.567901,43.8451649 695.580247,42.6109558 C699.592593,41.3767468 703.656379,40.45109 707.771605,39.8339855 L722.58642,39.8339855 C727.113169,40.45109 731.279835,41.7881498 735.08642,43.8451649 C738.893004,45.90218 742.493827,48.6791504 745.888889,52.176076 C750.209877,57.1129122 752.987654,62.6154276 754.222222,68.6836221 C755.45679,74.7518167 756.382716,80.9742873 757,87.3510341 L757,99.0760201 C756.176955,103.292901 754.633745,107.20123 752.37037,110.801006 C750.106996,114.400783 747.226337,117.743432 743.728395,120.828955 C741.567901,122.474567 739.304527,123.863052 736.938272,124.99441 C734.572016,126.125769 732.05144,126.691448 729.376543,126.691448 C727.730453,126.485746 726.187243,125.817216 724.746914,124.685858 C723.306584,123.5545 721.969136,122.474567 720.734568,121.446059 C719.088477,119.594746 717.853909,117.537731 717.030864,115.275014 C716.207819,113.012297 715.899177,110.543879 716.104938,107.86976 C716.516461,102.41867 717.390947,97.1218558 718.728395,91.9793181 C720.065844,86.8367803 720.734568,81.4885411 720.734568,75.9346003 C720.323045,73.6718837 719.44856,71.666294 718.111111,69.9178312 C716.773663,68.1693684 715.179012,66.4723309 713.32716,64.8267188 C711.886831,63.7982113 710.240741,63.1811068 708.388889,62.9754053 C706.537037,62.7697037 704.685185,62.7697037 702.833333,62.9754053 L695.734568,66.3694802 C694.088477,69.0435998 692.95679,71.9748463 692.339506,75.1632197 C691.722222,78.3515931 691.516461,81.6942426 691.722222,85.1911683 C692.339506,90.5394075 693.00823,95.861934 693.728395,101.158748 C694.44856,106.455562 694.808642,111.880939 694.808642,117.43488 C694.602881,118.87479 694.088477,120.263276 693.265432,121.600335 C692.442387,122.937395 691.41358,124.120179 690.179012,125.148686 C688.738683,125.971492 687.195473,126.485746 685.549383,126.691448 C683.903292,126.897149 682.257202,127 680.611111,127 Z" id="Path"></path>
                    <path d="M801.145327,133 C797.04385,132.794377 793.35252,131.766263 790.071339,129.915657 C786.790157,128.06505 783.662781,125.494764 780.68921,122.204798 C777.408028,117.064225 774.690799,111.692327 772.537524,106.089103 C770.384249,100.485879 769.205074,94.5999238 769,88.4312369 C769.205074,82.0569271 770.33298,76.093863 772.383719,70.5420448 C774.434457,64.9902266 777.510565,59.8496541 781.612042,55.1203275 C785.200835,51.4191153 789.045969,48.3861776 793.147447,46.0215142 C797.248924,43.6568509 801.863085,42.6801422 806.989932,43.091388 C813.552295,43.7082566 819.601974,45.6102685 825.138968,48.7974234 C830.675962,51.9845783 835.802809,56.0456305 840.519507,60.9805801 C845.236206,66.3267754 848.876267,72.187028 851.43969,78.5613378 C854.003113,84.9356476 855.182288,91.7212033 854.977214,98.9180047 C854.567066,103.133274 853.43916,106.988703 851.593495,110.484293 C849.747831,113.979882 847.286944,117.167037 844.210837,120.045757 C839.494138,123.541347 834.41856,126.317256 828.984103,128.373485 C823.549646,130.429714 817.858846,131.971886 811.911704,133 L801.145327,133 Z M811.296483,110.484293 C812.526926,109.044932 813.449758,107.554166 814.06498,106.011995 C814.680201,104.469823 815.192886,102.722028 815.603034,100.768611 L815.603034,90.5902773 C815.192886,86.6834423 814.577664,82.8280129 813.757369,79.0239893 C812.937074,75.2199657 811.501557,71.6729707 809.450818,68.3830044 L808.835596,68.3830044 C808.835596,69.205496 808.784328,69.9251761 808.681791,70.5420448 C808.579254,71.1589135 808.220375,71.6729707 807.605153,72.0842165 L805.144267,72.7010852 C803.913824,76.8135432 802.837186,80.9774069 801.914354,85.1926763 C800.991521,89.4079457 800.530105,93.7774323 800.530105,98.301136 C800.735179,100.562988 801.299132,102.696325 802.221965,104.701149 C803.144797,106.705972 804.323972,108.633687 805.759489,110.484293 C806.37471,110.895538 807.092469,111.101161 807.912764,111.101161 C808.73306,111.101161 809.553355,111.101161 810.37365,111.101161 L811.296483,110.484293 Z" id="Shape"></path>
                </g>
                <g id="Design-System" transform="translate(535.462885, 187.000000)" fill="#710277" fill-rule="nonzero">
                    <path d="M25.1375839,10 C33.3322148,10 40.511745,11.5491607 46.6761745,14.647482 C52.840604,17.7458034 57.602349,22.1928058 60.9614094,27.9884892 C64.3204698,33.7841727 66,40.5458034 66,48.2733813 C66,56.0009592 64.3204698,62.7079137 60.9614094,68.3942446 C57.602349,74.0805755 52.840604,78.4364508 46.6761745,81.4618705 C40.511745,84.4872902 33.3322148,86 25.1375839,86 L0,86 L0,10 L25.1375839,10 Z M25.1375839,75.8302158 C34.1442953,75.8302158 41.0469799,73.4244604 45.8456376,68.6129496 C50.6442953,63.8014388 53.0436242,57.0215827 53.0436242,48.2733813 C53.0436242,39.4522782 50.6442953,32.5630695 45.8456376,27.6057554 C41.0469799,22.6484412 34.1442953,20.1697842 25.1375839,20.1697842 L12.6241611,20.1697842 L12.6241611,75.8302158 L25.1375839,75.8302158 Z" id="Shape"></path>
                    <path d="M135,54.0052724 C135,56.2934974 134.85267,58.3602812 134.558011,60.2056239 L88.038674,60.2056239 C88.4069982,65.0773286 90.2117864,68.9894552 93.4530387,71.9420035 C96.694291,74.8945518 100.672192,76.370826 105.38674,76.370826 C112.163904,76.370826 116.952118,73.5289982 119.751381,67.8453427 L133.342541,67.8453427 C131.500921,73.4551845 128.167587,78.0500879 123.342541,81.6300527 C118.517495,85.2100176 112.532228,87 105.38674,87 C99.5672192,87 94.3554328,85.6898067 89.7513812,83.06942 C85.1473297,80.4490334 81.5377532,76.758348 78.9226519,71.9973638 C76.3075506,67.2363796 75,61.7188049 75,55.4446397 C75,49.1704745 76.2707182,43.6528998 78.8121547,38.8919156 C81.3535912,34.1309315 84.9263352,30.4586995 89.5303867,27.8752197 C94.1344383,25.2917399 99.4198895,24 105.38674,24 C111.132597,24 116.252302,25.254833 120.745856,27.7644991 C125.239411,30.2741652 128.73849,33.7987698 131.243094,38.3383128 C133.747698,42.8778559 135,48.1001757 135,54.0052724 Z M121.850829,50.0193322 C121.777164,45.3690685 120.119705,41.6414763 116.878453,38.8365554 C113.637201,36.0316344 109.622468,34.629174 104.834254,34.629174 C100.488029,34.629174 96.7679558,36.013181 93.6740331,38.7811951 C90.5801105,41.5492091 88.7384899,45.2952548 88.1491713,50.0193322 L121.850829,50.0193322 Z" id="Shape"></path>
                    <path d="M171.034014,87 C166.31746,87 162.090703,86.1326889 158.353741,84.3980668 C154.61678,82.6634446 151.659864,80.301406 149.482993,77.3119508 C147.306122,74.3224956 146.145125,70.9824253 146,67.2917399 L158.843537,67.2917399 C159.061224,69.8752197 160.276644,72.0342707 162.489796,73.7688928 C164.702948,75.5035149 167.478458,76.370826 170.816327,76.370826 C174.29932,76.370826 177.002268,75.6880492 178.92517,74.3224956 C180.848073,72.956942 181.809524,71.2038664 181.809524,69.0632689 C181.809524,66.7750439 180.739229,65.0773286 178.598639,63.970123 C176.45805,62.8629174 173.06576,61.6449912 168.421769,60.3163445 C163.922902,59.0615114 160.258503,57.8435852 157.428571,56.6625659 C154.598639,55.4815466 152.14966,53.6731107 150.081633,51.2372583 C148.013605,48.801406 146.979592,45.5905097 146.979592,41.6045694 C146.979592,38.3567663 147.922902,35.3857645 149.809524,32.6915641 C151.696145,29.9973638 154.399093,27.8752197 157.918367,26.3251318 C161.437642,24.7750439 165.482993,24 170.054422,24 C176.875283,24 182.371882,25.7530756 186.544218,29.2592267 C190.716553,32.7653779 192.947846,37.5448155 193.238095,43.5975395 L180.829932,43.5975395 C180.612245,40.8664323 179.52381,38.6889279 177.564626,37.0650264 C175.605442,35.4411248 172.956916,34.629174 169.619048,34.629174 C166.353741,34.629174 163.85034,35.2565905 162.108844,36.5114236 C160.367347,37.7662566 159.496599,39.427065 159.496599,41.4938489 C159.496599,43.1177504 160.077098,44.483304 161.238095,45.5905097 C162.399093,46.6977153 163.814059,47.5650264 165.482993,48.1924429 C167.151927,48.8198594 169.619048,49.6133568 172.884354,50.572935 C177.238095,51.7539543 180.811791,52.9534271 183.605442,54.1713533 C186.399093,55.3892794 188.811791,57.1792619 190.843537,59.5413005 C192.875283,61.9033392 193.927438,65.0404218 194,68.9525483 C194,72.4217926 193.056689,75.5219684 191.170068,78.2530756 C189.283447,80.9841828 186.61678,83.1247803 183.170068,84.6748682 C179.723356,86.2249561 175.678005,87 171.034014,87 Z" id="Path"></path>
                    <path d="M215.055172,16.3064935 C212.774713,16.3064935 210.862069,15.5246753 209.317241,13.961039 C207.772414,12.3974026 207,10.4614719 207,8.15324675 C207,5.84502165 207.772414,3.90909091 209.317241,2.34545455 C210.862069,0.781818182 212.774713,0 215.055172,0 C217.262069,0 219.137931,0.781818182 220.682759,2.34545455 C222.227586,3.90909091 223,5.84502165 223,8.15324675 C223,10.4614719 222.227586,12.3974026 220.682759,13.961039 C219.137931,15.5246753 217.262069,16.3064935 215.055172,16.3064935 Z M221.234483,24.4597403 L221.234483,86 L208.655172,86 L208.655172,24.4597403 L221.234483,24.4597403 Z" id="Shape"></path>
                    <path d="M262.939929,23 C267.689046,23 271.900177,23.9399038 275.573322,25.8197115 C279.246466,27.6995192 282.121908,30.0400641 284.199647,32.8413462 L284.199647,23.9951923 L297,23.9951923 L297,85.9182692 C297,91.5208333 295.812721,96.5152244 293.438163,100.901442 C291.063604,105.28766 287.631625,108.733974 283.142226,111.240385 C278.652827,113.746795 273.291519,115 267.058304,115 C258.74735,115 251.84629,113.064904 246.355124,109.194712 C240.863958,105.324519 237.74735,100.072115 237.0053,93.4375 L249.583039,93.4375 C250.547703,96.6073718 252.60689,99.1690705 255.760601,101.122596 C258.914311,103.076122 262.680212,104.052885 267.058304,104.052885 C272.178445,104.052885 276.315371,102.504808 279.469081,99.4086538 C282.622792,96.3125 284.199647,91.8157051 284.199647,85.9182692 L284.199647,75.7451923 C282.047703,78.6201923 279.135159,81.0344551 275.462014,82.9879808 C271.788869,84.9415064 267.614841,85.9182692 262.939929,85.9182692 C257.597173,85.9182692 252.718198,84.5729167 248.303004,81.8822115 C243.887809,79.1915064 240.400177,75.431891 237.840106,70.6033654 C235.280035,65.7748397 234,60.3012821 234,54.1826923 C234,48.0641026 235.280035,42.6458333 237.840106,37.9278846 C240.400177,33.2099359 243.887809,29.5424679 248.303004,26.9254808 C252.718198,24.3084936 257.597173,23 262.939929,23 Z M284.199647,54.4038462 C284.199647,50.2019231 283.327739,46.5528846 281.583922,43.4567308 C279.840106,40.3605769 277.558304,38.0016026 274.738516,36.3798077 C271.918728,34.7580128 268.876325,33.9471154 265.611307,33.9471154 C262.34629,33.9471154 259.303887,34.7395833 256.484099,36.3245192 C253.664311,37.9094551 251.382509,40.2315705 249.638693,43.2908654 C247.894876,46.3501603 247.022968,49.9807692 247.022968,54.1826923 C247.022968,58.3846154 247.894876,62.0705128 249.638693,65.2403846 C251.382509,68.4102564 253.682862,70.8245192 256.539753,72.4831731 C259.396643,74.1418269 262.420495,74.9711538 265.611307,74.9711538 C268.876325,74.9711538 271.918728,74.1602564 274.738516,72.5384615 C277.558304,70.9166667 279.840106,68.5392628 281.583922,65.40625 C283.327739,62.2732372 284.199647,58.6057692 284.199647,54.4038462 Z" id="Shape"></path>
                    <path d="M345.337302,24 C350.066138,24 354.303902,24.9964286 358.050595,26.9892857 C361.797288,28.9821429 364.725529,31.9345238 366.835317,35.8464286 C368.945106,39.7583333 370,44.4821429 370,50.0178571 L370,86 L357.668651,86 L357.668651,51.9 C357.668651,46.4380952 356.322751,42.2494048 353.630952,39.3339286 C350.939153,36.4184524 347.265212,34.9607143 342.609127,34.9607143 C337.953042,34.9607143 334.260913,36.4184524 331.532738,39.3339286 C328.804563,42.2494048 327.440476,46.4380952 327.440476,51.9 L327.440476,86 L315,86 L315,24.9964286 L327.440476,24.9964286 L327.440476,31.9714286 C329.477513,29.4619048 332.078373,27.5059524 335.243056,26.1035714 C338.407738,24.7011905 341.772487,24 345.337302,24 Z" id="Path"></path>
                    <path d="M442.82716,86 C437.737997,86 433.15775,85.1040788 429.08642,83.3122363 C425.015089,81.5203938 421.816187,78.978903 419.489712,75.6877637 C417.163237,72.3966245 416,68.556962 416,64.1687764 L429.304527,64.1687764 C429.595336,67.4599156 430.885802,70.1659634 433.175926,72.2869198 C435.466049,74.4078762 438.683128,75.4683544 442.82716,75.4683544 C447.116598,75.4683544 450.460905,74.4261603 452.860082,72.3417722 C455.259259,70.257384 456.458848,67.5696203 456.458848,64.278481 C456.458848,61.718706 455.713649,59.6343179 454.223251,58.0253165 C452.732853,56.416315 450.878944,55.1729958 448.661523,54.2953586 C446.444102,53.4177215 443.372428,52.466948 439.446502,51.443038 C434.502743,50.1265823 430.48594,48.7918425 427.396091,47.4388186 C424.306241,46.0857947 421.670782,43.9831224 419.489712,41.1308017 C417.308642,38.278481 416.218107,34.4753868 416.218107,29.721519 C416.218107,25.3333333 417.308642,21.4936709 419.489712,18.2025316 C421.670782,14.9113924 424.72428,12.3881857 428.650206,10.6329114 C432.576132,8.87763713 437.120027,8 442.281893,8 C449.624829,8 455.640947,9.8466948 460.330247,13.5400844 C465.019547,17.233474 467.618656,22.2981716 468.127572,28.7341772 L454.386831,28.7341772 C454.168724,25.954993 452.860082,23.5780591 450.460905,21.6033755 C448.061728,19.628692 444.899177,18.6413502 440.973251,18.6413502 C437.410837,18.6413502 434.502743,19.5555556 432.248971,21.3839662 C429.995199,23.2123769 428.868313,25.8452883 428.868313,29.2827004 C428.868313,31.6230661 429.57716,33.5428973 430.994856,35.0421941 C432.412551,36.5414909 434.211934,37.7299578 436.393004,38.6075949 C438.574074,39.4852321 441.55487,40.4360056 445.335391,41.4599156 C450.351852,42.8495077 454.441358,44.2390999 457.603909,45.628692 C460.766461,47.0182841 463.456447,49.1575246 465.673868,52.0464135 C467.891289,54.9353024 469,58.7932489 469,63.6202532 C469,67.4964838 467.963992,71.1533052 465.891975,74.5907173 C463.819959,78.0281294 460.802812,80.7890295 456.840535,82.8734177 C452.878258,84.9578059 448.207133,86 442.82716,86 Z" id="Path"></path>
                    <polygon id="Path" points="541 24 503.645276 113 490.604278 113 502.982175 83.5530864 479 24 493.035651 24 510.165775 70.1481481 527.959002 24"></polygon>
                    <path d="M573.034014,87 C568.31746,87 564.090703,86.1326889 560.353741,84.3980668 C556.61678,82.6634446 553.659864,80.301406 551.482993,77.3119508 C549.306122,74.3224956 548.145125,70.9824253 548,67.2917399 L560.843537,67.2917399 C561.061224,69.8752197 562.276644,72.0342707 564.489796,73.7688928 C566.702948,75.5035149 569.478458,76.370826 572.816327,76.370826 C576.29932,76.370826 579.002268,75.6880492 580.92517,74.3224956 C582.848073,72.956942 583.809524,71.2038664 583.809524,69.0632689 C583.809524,66.7750439 582.739229,65.0773286 580.598639,63.970123 C578.45805,62.8629174 575.06576,61.6449912 570.421769,60.3163445 C565.922902,59.0615114 562.258503,57.8435852 559.428571,56.6625659 C556.598639,55.4815466 554.14966,53.6731107 552.081633,51.2372583 C550.013605,48.801406 548.979592,45.5905097 548.979592,41.6045694 C548.979592,38.3567663 549.922902,35.3857645 551.809524,32.6915641 C553.696145,29.9973638 556.399093,27.8752197 559.918367,26.3251318 C563.437642,24.7750439 567.482993,24 572.054422,24 C578.875283,24 584.371882,25.7530756 588.544218,29.2592267 C592.716553,32.7653779 594.947846,37.5448155 595.238095,43.5975395 L582.829932,43.5975395 C582.612245,40.8664323 581.52381,38.6889279 579.564626,37.0650264 C577.605442,35.4411248 574.956916,34.629174 571.619048,34.629174 C568.353741,34.629174 565.85034,35.2565905 564.108844,36.5114236 C562.367347,37.7662566 561.496599,39.427065 561.496599,41.4938489 C561.496599,43.1177504 562.077098,44.483304 563.238095,45.5905097 C564.399093,46.6977153 565.814059,47.5650264 567.482993,48.1924429 C569.151927,48.8198594 571.619048,49.6133568 574.884354,50.572935 C579.238095,51.7539543 582.811791,52.9534271 585.605442,54.1713533 C588.399093,55.3892794 590.811791,57.1792619 592.843537,59.5413005 C594.875283,61.9033392 595.927438,65.0404218 596,68.9525483 C596,72.4217926 595.056689,75.5219684 593.170068,78.2530756 C591.283447,80.9841828 588.61678,83.1247803 585.170068,84.6748682 C581.723356,86.2249561 577.678005,87 573.034014,87 Z" id="Path"></path>
                    <path d="M625.063694,35.4069767 L625.063694,69.0988372 C625.063694,71.3817829 625.602442,73.0203488 626.679936,74.0145349 C627.757431,75.0087209 629.596603,75.505814 632.197452,75.505814 L640,75.505814 L640,86 L629.968153,86 C624.246285,86 619.861996,84.6744186 616.815287,82.0232558 C613.768577,79.372093 612.245223,75.0639535 612.245223,69.0988372 L612.245223,35.4069767 L605,35.4069767 L605,25.1337209 L612.245223,25.1337209 L612.245223,10 L625.063694,10 L625.063694,25.1337209 L640,25.1337209 L640,35.4069767 L625.063694,35.4069767 Z" id="Path"></path>
                    <path d="M709,54.0052724 C709,56.2934974 708.85267,58.3602812 708.558011,60.2056239 L662.038674,60.2056239 C662.406998,65.0773286 664.211786,68.9894552 667.453039,71.9420035 C670.694291,74.8945518 674.672192,76.370826 679.38674,76.370826 C686.163904,76.370826 690.952118,73.5289982 693.751381,67.8453427 L707.342541,67.8453427 C705.500921,73.4551845 702.167587,78.0500879 697.342541,81.6300527 C692.517495,85.2100176 686.532228,87 679.38674,87 C673.567219,87 668.355433,85.6898067 663.751381,83.06942 C659.14733,80.4490334 655.537753,76.758348 652.922652,71.9973638 C650.307551,67.2363796 649,61.7188049 649,55.4446397 C649,49.1704745 650.270718,43.6528998 652.812155,38.8919156 C655.353591,34.1309315 658.926335,30.4586995 663.530387,27.8752197 C668.134438,25.2917399 673.41989,24 679.38674,24 C685.132597,24 690.252302,25.254833 694.745856,27.7644991 C699.239411,30.2741652 702.73849,33.7987698 705.243094,38.3383128 C707.747698,42.8778559 709,48.1001757 709,54.0052724 Z M695.850829,50.0193322 C695.777164,45.3690685 694.119705,41.6414763 690.878453,38.8365554 C687.637201,36.0316344 683.622468,34.629174 678.834254,34.629174 C674.488029,34.629174 670.767956,36.013181 667.674033,38.7811951 C664.58011,41.5492091 662.73849,45.2952548 662.149171,50.0193322 L695.850829,50.0193322 Z" id="Shape"></path>
                    <path d="M795.862416,24 C800.661074,24 804.961409,24.9964286 808.763423,26.9892857 C812.565436,28.9821429 815.555369,31.9345238 817.733221,35.8464286 C819.911074,39.7583333 821,44.4821429 821,50.0178571 L821,86 L808.486577,86 L808.486577,51.9 C808.486577,46.4380952 807.120805,42.2494048 804.389262,39.3339286 C801.657718,36.4184524 797.92953,34.9607143 793.204698,34.9607143 C788.479866,34.9607143 784.733221,36.4184524 781.964765,39.3339286 C779.196309,42.2494048 777.812081,46.4380952 777.812081,51.9 L777.812081,86 L765.298658,86 L765.298658,51.9 C765.298658,46.4380952 763.932886,42.2494048 761.201342,39.3339286 C758.469799,36.4184524 754.741611,34.9607143 750.016779,34.9607143 C745.291946,34.9607143 741.545302,36.4184524 738.776846,39.3339286 C736.008389,42.2494048 734.624161,46.4380952 734.624161,51.9 L734.624161,86 L722,86 L722,24.9964286 L734.624161,24.9964286 L734.624161,31.9714286 C736.691275,29.4619048 739.312081,27.5059524 742.486577,26.1035714 C745.661074,24.7011905 749.057047,24 752.674497,24 C757.54698,24 761.902685,25.0333333 765.741611,27.1 C769.580537,29.1666667 772.533557,32.1559524 774.600671,36.0678571 C776.446309,32.377381 779.325503,29.4434524 783.238255,27.2660714 C787.151007,25.0886905 791.35906,24 795.862416,24 Z" id="Path"></path>
                </g>
            </g>
        </g>
    </g>
</svg>